{"glyphs":{"0":{"ha":1263,"x_min":0,"x_max":0,"o":"m 632 -28 b 25 498 282 -28 25 176 b 632 1025 25 822 282 1025 b 1238 498 979 1025 1238 822 b 632 -28 1238 176 979 -28 m 632 183 b 979 498 828 183 979 290 b 632 814 979 707 828 814 b 285 498 435 814 285 707 b 632 183 285 290 435 183 "},"1":{"ha":568,"x_min":0,"x_max":0,"o":"m 227 664 l -1 664 l -1 810 b 292 997 140 833 237 888 l 475 997 l 475 0 l 227 0 "},"2":{"ha":1160,"x_min":0,"x_max":0,"o":"m 45 229 b 844 668 45 657 844 432 b 599 815 844 777 745 815 b 310 629 435 815 334 753 l 52 629 b 599 1026 81 886 250 1026 b 1103 688 913 1026 1103 916 b 297 218 1103 199 297 440 l 1121 218 l 1121 0 l 45 0 "},"3":{"ha":1162,"x_min":0,"x_max":0,"o":"m 602 -31 b 11 318 245 -31 66 94 l 260 351 b 602 186 298 248 372 186 b 893 313 806 186 893 235 b 619 415 893 415 771 415 l 432 415 l 432 610 l 619 610 b 856 713 749 610 856 616 b 599 823 856 790 757 823 b 281 642 404 823 307 774 l 26 679 b 597 1025 64 918 283 1025 b 1089 733 914 1025 1089 917 b 966 536 1089 654 1055 574 l 966 515 b 1139 290 1090 475 1139 392 b 602 -31 1139 87 947 -31 "},"4":{"ha":1166,"x_min":0,"x_max":0,"o":"m 725 189 l 7 189 l 7 401 l 604 997 l 974 997 l 974 400 l 1160 400 l 1160 189 l 974 189 l 974 0 l 725 0 m 725 400 l 725 786 l 699 786 l 304 400 "},"5":{"ha":1213,"x_min":0,"x_max":0,"o":"m 746 688 b 1185 353 1000 688 1185 587 b 614 -31 1185 117 974 -31 b 66 232 310 -31 123 69 l 322 298 b 629 180 366 221 446 180 b 937 339 844 180 937 240 b 710 489 937 449 846 489 b 77 358 555 489 345 436 l 77 997 l 1122 997 l 1122 786 l 322 786 l 322 615 b 746 688 471 662 618 688 "},"6":{"ha":1202,"x_min":0,"x_max":0,"o":"m 718 657 b 1174 340 965 657 1174 541 b 633 -28 1174 126 937 -28 b 25 498 282 -28 25 176 b 646 1025 25 822 282 1025 b 1179 787 886 1025 1075 939 l 949 679 b 647 814 888 772 782 814 b 287 538 450 814 307 724 b 718 657 435 621 585 657 m 650 183 b 914 328 800 183 914 229 b 679 452 914 410 808 452 b 325 333 574 452 433 425 b 650 183 380 239 491 183 "},"7":{"ha":1089,"x_min":0,"x_max":0,"o":"m 1086 997 l 1086 783 b 656 0 704 383 656 296 l 401 0 b 847 786 401 355 483 436 l 277 786 l 277 576 l 28 576 l 28 997 "},"8":{"ha":1173,"x_min":0,"x_max":0,"o":"m 586 -31 b 24 292 222 -31 24 87 b 204 518 24 393 74 479 l 204 533 b 74 732 110 568 74 652 b 586 1025 74 917 256 1025 b 1099 732 917 1025 1099 917 b 968 533 1099 652 1063 568 l 968 518 b 1149 292 1099 479 1149 393 b 586 -31 1149 87 950 -31 m 586 603 b 865 711 714 603 865 616 b 586 823 865 790 761 823 b 307 711 411 823 307 790 b 586 603 307 616 458 603 m 586 186 b 903 315 808 186 903 235 b 586 435 903 407 782 435 b 269 315 390 435 269 407 b 586 186 269 235 364 186 "},"9":{"ha":1200,"x_min":0,"x_max":0,"o":"m 567 1025 b 1175 498 918 1025 1175 821 b 554 -28 1175 175 918 -28 b 21 210 314 -28 125 58 l 252 318 b 553 183 313 225 418 183 b 913 460 750 183 894 273 b 482 340 766 376 614 340 b 26 657 235 340 26 457 b 567 1025 26 871 262 1025 m 286 669 b 521 546 286 587 392 546 b 876 665 625 546 767 573 b 550 814 820 759 709 814 b 286 669 400 814 286 768 "}," ":{"ha":361,"x_min":0,"x_max":0,"o":""},"A":{"ha":1174,"x_min":0,"x_max":0,"o":"m 831 184 l 342 184 l 272 0 l -8 0 l 399 997 l 775 997 l 1182 0 l 901 0 m 750 397 l 608 771 l 566 771 l 423 397 "},"Á":{"ha":1174,"x_min":0,"x_max":0,"o":"m 703 1083 l 472 1083 l 611 1287 l 872 1287 m 831 184 l 342 184 l 272 0 l -8 0 l 399 997 l 775 997 l 1182 0 l 901 0 m 750 397 l 608 771 l 566 771 l 423 397 "},"Ă":{"ha":1174,"x_min":0,"x_max":0,"o":"m 587 1083 b 315 1295 419 1083 315 1135 l 495 1295 b 587 1194 495 1225 526 1194 b 680 1295 650 1194 680 1225 l 861 1295 b 587 1083 861 1135 757 1083 m 831 184 l 342 184 l 272 0 l -8 0 l 399 997 l 775 997 l 1182 0 l 901 0 m 750 397 l 608 771 l 566 771 l 423 397 "},"Â":{"ha":1174,"x_min":0,"x_max":0,"o":"m 504 1083 l 315 1083 l 476 1287 l 698 1287 l 859 1083 l 670 1083 l 587 1175 m 831 184 l 342 184 l 272 0 l -8 0 l 399 997 l 775 997 l 1182 0 l 901 0 m 750 397 l 608 771 l 566 771 l 423 397 "},"Ä":{"ha":1174,"x_min":0,"x_max":0,"o":"m 544 1082 l 296 1082 l 296 1287 l 544 1287 m 879 1082 l 630 1082 l 630 1287 l 879 1287 m 831 184 l 342 184 l 272 0 l -8 0 l 399 997 l 775 997 l 1182 0 l 901 0 m 750 397 l 608 771 l 566 771 l 423 397 "},"À":{"ha":1174,"x_min":0,"x_max":0,"o":"m 472 1083 l 302 1287 l 564 1287 l 703 1083 m 831 184 l 342 184 l 272 0 l -8 0 l 399 997 l 775 997 l 1182 0 l 901 0 m 750 397 l 608 771 l 566 771 l 423 397 "},"Ā":{"ha":1174,"x_min":0,"x_max":0,"o":"m 816 1083 l 358 1083 l 358 1225 l 816 1225 m 831 184 l 342 184 l 272 0 l -8 0 l 399 997 l 775 997 l 1182 0 l 901 0 m 750 397 l 608 771 l 566 771 l 423 397 "},"Ą":{"ha":1174,"x_min":0,"x_max":0,"o":"m 1064 -165 b 1089 -183 1064 -179 1074 -183 b 1182 -154 1114 -183 1153 -170 l 1182 -283 b 1069 -306 1150 -297 1109 -306 b 930 -225 996 -306 930 -281 b 1087 0 930 -163 1002 -77 l 901 0 l 831 184 l 342 184 l 272 0 l -8 0 l 399 997 l 775 997 l 1182 0 b 1064 -165 1125 -69 1064 -132 m 750 397 l 608 771 l 566 771 l 423 397 "},"Å":{"ha":1174,"x_min":0,"x_max":0,"o":"m 831 184 l 342 184 l 272 0 l -8 0 l 399 997 b 385 1064 389 1017 385 1040 b 589 1239 385 1164 469 1239 b 790 1065 712 1239 790 1160 b 776 996 790 1041 785 1017 l 1182 0 l 901 0 m 589 1132 b 514 1065 536 1132 514 1097 b 589 999 514 1028 536 999 b 665 1065 642 999 665 1028 b 589 1132 665 1097 642 1132 m 750 397 l 608 771 l 566 771 l 423 397 "},"Ã":{"ha":1174,"x_min":0,"x_max":0,"o":"m 514 1177 b 469 1092 482 1177 469 1152 l 300 1092 b 500 1311 300 1217 361 1311 b 694 1218 639 1311 643 1218 b 732 1303 722 1218 732 1240 l 903 1303 b 699 1083 903 1182 848 1083 b 514 1177 554 1083 570 1177 m 831 184 l 342 184 l 272 0 l -8 0 l 399 997 l 775 997 l 1182 0 l 901 0 m 750 397 l 608 771 l 566 771 l 423 397 "},"Æ":{"ha":1808,"x_min":0,"x_max":0,"o":"m 921 772 l 987 610 l 1725 610 l 1725 387 l 1078 387 l 1144 227 l 1725 227 l 1725 0 l 956 0 l 886 184 l 342 184 l 272 0 l -8 0 l 397 997 l 1725 997 l 1725 772 m 804 397 l 663 771 l 566 771 l 423 397 "},"B":{"ha":1186,"x_min":0,"x_max":0,"o":"m 998 523 b 1149 296 1088 487 1149 420 b 779 0 1149 127 1055 0 l 97 0 l 97 997 l 779 997 b 1109 730 1000 997 1109 904 b 998 523 1109 639 1065 562 m 857 699 b 721 786 857 786 772 786 l 349 786 l 349 610 l 733 610 b 857 699 771 610 857 610 m 730 218 b 882 322 783 218 882 218 b 728 415 882 415 787 415 l 349 415 l 349 218 l 730 218 "},"C":{"ha":1210,"x_min":0,"x_max":0,"o":"m 636 -28 b 29 498 286 -28 29 175 b 636 1025 29 822 286 1025 b 1198 697 901 1025 1117 900 l 956 612 b 636 790 907 724 785 790 b 289 498 439 790 289 684 b 636 207 289 314 439 207 b 956 385 785 207 907 273 l 1198 300 b 636 -28 1117 97 901 -28 "},"Ć":{"ha":1210,"x_min":0,"x_max":0,"o":"m 660 1287 l 921 1287 l 751 1083 l 521 1083 m 636 -28 b 29 498 286 -28 29 175 b 636 1025 29 822 286 1025 b 1198 697 901 1025 1117 900 l 956 612 b 636 790 907 724 785 790 b 289 498 439 790 289 684 b 636 207 289 314 439 207 b 956 385 785 207 907 273 l 1198 300 b 636 -28 1117 97 901 -28 "},"Č":{"ha":1210,"x_min":0,"x_max":0,"o":"m 363 1287 l 553 1287 l 636 1196 l 719 1287 l 908 1287 l 747 1083 l 525 1083 m 636 -28 b 29 498 286 -28 29 175 b 636 1025 29 822 286 1025 b 1198 697 901 1025 1117 900 l 956 612 b 636 790 907 724 785 790 b 289 498 439 790 289 684 b 636 207 289 314 439 207 b 956 385 785 207 907 273 l 1198 300 b 636 -28 1117 97 901 -28 "},"Ç":{"ha":1210,"x_min":0,"x_max":0,"o":"m 636 207 b 956 385 785 207 907 273 l 1198 300 b 676 -27 1121 107 923 -15 l 644 -77 b 671 -74 653 -75 663 -74 b 802 -204 746 -74 802 -127 b 644 -361 802 -292 732 -361 b 481 -249 557 -361 498 -311 l 586 -215 b 639 -254 595 -241 616 -254 b 692 -204 665 -254 692 -236 b 639 -153 692 -170 665 -153 b 592 -178 620 -153 602 -161 l 507 -131 l 568 -25 b 29 498 253 0 29 197 b 636 1025 29 822 286 1025 b 1198 697 901 1025 1117 900 l 956 612 b 636 790 907 724 785 790 b 289 498 439 790 289 684 b 636 207 289 314 439 207 "},"Ċ":{"ha":1210,"x_min":0,"x_max":0,"o":"m 511 1287 l 760 1287 l 760 1082 l 511 1082 m 636 -28 b 29 498 286 -28 29 175 b 636 1025 29 822 286 1025 b 1198 697 901 1025 1117 900 l 956 612 b 636 790 907 724 785 790 b 289 498 439 790 289 684 b 636 207 289 314 439 207 b 956 385 785 207 907 273 l 1198 300 b 636 -28 1117 97 901 -28 "},"D":{"ha":1271,"x_min":0,"x_max":0,"o":"m 97 997 l 657 997 b 1240 498 1053 997 1240 802 b 657 0 1240 196 1053 0 l 97 0 m 644 227 b 965 498 847 227 965 298 b 644 772 965 703 843 772 l 358 772 l 358 227 "},"Ð":{"ha":1271,"x_min":0,"x_max":0,"o":"m 657 997 b 1240 498 1053 997 1240 802 b 657 0 1240 196 1053 0 l 97 0 l 97 425 l 3 425 l 3 572 l 97 572 l 97 997 l 657 997 m 644 227 b 965 498 847 227 965 298 b 644 772 965 703 843 772 l 358 772 l 358 572 l 509 572 l 509 425 l 358 425 l 358 227 l 644 227 "},"Ď":{"ha":1271,"x_min":0,"x_max":0,"o":"m 363 1287 l 553 1287 l 636 1196 l 719 1287 l 908 1287 l 747 1083 l 525 1083 m 97 997 l 657 997 b 1240 498 1053 997 1240 802 b 657 0 1240 196 1053 0 l 97 0 m 644 227 b 965 498 847 227 965 298 b 644 772 965 703 843 772 l 358 772 l 358 227 "},"Đ":{"ha":1271,"x_min":0,"x_max":0,"o":"m 657 997 b 1240 498 1053 997 1240 802 b 657 0 1240 196 1053 0 l 97 0 l 97 425 l 3 425 l 3 572 l 97 572 l 97 997 l 657 997 m 644 227 b 965 498 847 227 965 298 b 644 772 965 703 843 772 l 358 772 l 358 572 l 509 572 l 509 425 l 358 425 l 358 227 l 644 227 "},"E":{"ha":1109,"x_min":0,"x_max":0,"o":"m 358 772 l 358 610 l 1026 610 l 1026 387 l 358 387 l 358 227 l 1026 227 l 1026 0 l 97 0 l 97 997 l 1026 997 l 1026 772 "},"É":{"ha":1109,"x_min":0,"x_max":0,"o":"m 684 1083 l 453 1083 l 592 1287 l 853 1287 m 358 772 l 358 610 l 1026 610 l 1026 387 l 358 387 l 358 227 l 1026 227 l 1026 0 l 97 0 l 97 997 l 1026 997 l 1026 772 "},"Ě":{"ha":1109,"x_min":0,"x_max":0,"o":"m 457 1083 l 296 1287 l 485 1287 l 568 1196 l 651 1287 l 840 1287 l 679 1083 m 358 772 l 358 610 l 1026 610 l 1026 387 l 358 387 l 358 227 l 1026 227 l 1026 0 l 97 0 l 97 997 l 1026 997 l 1026 772 "},"Ê":{"ha":1109,"x_min":0,"x_max":0,"o":"m 485 1083 l 296 1083 l 457 1287 l 679 1287 l 840 1083 l 651 1083 l 568 1175 m 358 772 l 358 610 l 1026 610 l 1026 387 l 358 387 l 358 227 l 1026 227 l 1026 0 l 97 0 l 97 997 l 1026 997 l 1026 772 "},"Ë":{"ha":1109,"x_min":0,"x_max":0,"o":"m 525 1082 l 277 1082 l 277 1287 l 525 1287 m 860 1082 l 611 1082 l 611 1287 l 860 1287 m 358 772 l 358 610 l 1026 610 l 1026 387 l 358 387 l 358 227 l 1026 227 l 1026 0 l 97 0 l 97 997 l 1026 997 l 1026 772 "},"Ė":{"ha":1109,"x_min":0,"x_max":0,"o":"m 692 1082 l 444 1082 l 444 1287 l 692 1287 m 358 772 l 358 610 l 1026 610 l 1026 387 l 358 387 l 358 227 l 1026 227 l 1026 0 l 97 0 l 97 997 l 1026 997 l 1026 772 "},"È":{"ha":1109,"x_min":0,"x_max":0,"o":"m 453 1083 l 283 1287 l 545 1287 l 684 1083 m 358 772 l 358 610 l 1026 610 l 1026 387 l 358 387 l 358 227 l 1026 227 l 1026 0 l 97 0 l 97 997 l 1026 997 l 1026 772 "},"Ē":{"ha":1109,"x_min":0,"x_max":0,"o":"m 797 1083 l 339 1083 l 339 1225 l 797 1225 m 358 772 l 358 610 l 1026 610 l 1026 387 l 358 387 l 358 227 l 1026 227 l 1026 0 l 97 0 l 97 997 l 1026 997 l 1026 772 "},"Ę":{"ha":1109,"x_min":0,"x_max":0,"o":"m 358 772 l 358 610 l 1026 610 l 1026 387 l 358 387 l 358 227 l 1026 227 l 1026 0 b 908 -165 969 -69 908 -132 b 933 -183 908 -179 918 -183 b 1026 -154 958 -183 997 -170 l 1026 -283 b 913 -306 994 -297 953 -306 b 774 -225 840 -306 774 -281 b 931 0 774 -163 846 -77 l 97 0 l 97 997 l 1026 997 l 1026 772 "},"F":{"ha":1074,"x_min":0,"x_max":0,"o":"m 358 772 l 358 610 l 1026 610 l 1026 387 l 358 387 l 358 0 l 97 0 l 97 997 l 1026 997 l 1026 772 "},"G":{"ha":1242,"x_min":0,"x_max":0,"o":"m 636 -28 b 29 498 286 -28 29 175 b 636 1025 29 822 286 1025 b 1198 697 901 1025 1117 900 l 956 612 b 636 790 907 724 785 790 b 289 498 439 790 289 684 b 636 207 289 314 439 207 b 965 332 785 207 890 243 l 965 358 l 636 358 l 636 562 l 1198 562 l 1198 258 b 636 -28 1117 97 901 -28 "},"Ğ":{"ha":1242,"x_min":0,"x_max":0,"o":"m 619 1083 b 347 1295 451 1083 347 1135 l 527 1295 b 619 1194 527 1225 558 1194 b 712 1295 682 1194 712 1225 l 892 1295 b 619 1083 892 1135 789 1083 m 636 -28 b 29 498 286 -28 29 175 b 636 1025 29 822 286 1025 b 1198 697 901 1025 1117 900 l 956 612 b 636 790 907 724 785 790 b 289 498 439 790 289 684 b 636 207 289 314 439 207 b 965 332 785 207 890 243 l 965 358 l 636 358 l 636 562 l 1198 562 l 1198 258 b 636 -28 1117 97 901 -28 "},"Ģ":{"ha":1242,"x_min":0,"x_max":0,"o":"m 636 -28 b 29 498 286 -28 29 175 b 636 1025 29 822 286 1025 b 1198 697 901 1025 1117 900 l 956 612 b 636 790 907 724 785 790 b 289 498 439 790 289 684 b 636 207 289 314 439 207 b 965 332 785 207 890 243 l 965 358 l 636 358 l 636 562 l 1198 562 l 1198 258 b 636 -28 1117 97 901 -28 m 513 -83 l 725 -83 l 566 -318 l 406 -318 "},"Ġ":{"ha":1242,"x_min":0,"x_max":0,"o":"m 494 1287 l 743 1287 l 743 1082 l 494 1082 m 636 -28 b 29 498 286 -28 29 175 b 636 1025 29 822 286 1025 b 1198 697 901 1025 1117 900 l 956 612 b 636 790 907 724 785 790 b 289 498 439 790 289 684 b 636 207 289 314 439 207 b 965 332 785 207 890 243 l 965 358 l 636 358 l 636 562 l 1198 562 l 1198 258 b 636 -28 1117 97 901 -28 "},"H":{"ha":1200,"x_min":0,"x_max":0,"o":"m 1103 997 l 1103 0 l 842 0 l 842 389 l 358 389 l 358 0 l 97 0 l 97 997 l 358 997 l 358 611 l 842 611 l 842 997 "},"Ħ":{"ha":1200,"x_min":0,"x_max":0,"o":"m 1171 745 l 1103 745 l 1103 0 l 842 0 l 842 389 l 358 389 l 358 0 l 97 0 l 97 745 l 31 745 l 31 836 l 97 836 l 97 997 l 358 997 l 358 836 l 842 836 l 842 997 l 1103 997 l 1103 836 l 1171 836 m 842 745 l 358 745 l 358 611 l 842 611 "},"I":{"ha":453,"x_min":0,"x_max":0,"o":"m 97 997 l 355 997 l 355 0 l 97 0 "},"Í":{"ha":453,"x_min":0,"x_max":0,"o":"m 252 1287 l 513 1287 l 343 1083 l 113 1083 m 97 997 l 355 997 l 355 0 l 97 0 "},"Î":{"ha":453,"x_min":0,"x_max":0,"o":"m 117 1287 l 338 1287 l 500 1083 l 311 1083 l 228 1175 l 144 1083 l -45 1083 m 97 997 l 355 997 l 355 0 l 97 0 "},"Ï":{"ha":453,"x_min":0,"x_max":0,"o":"m -64 1287 l 184 1287 l 184 1082 l -64 1082 m 271 1287 l 519 1287 l 519 1082 l 271 1082 m 97 997 l 355 997 l 355 0 l 97 0 "},"İ":{"ha":453,"x_min":0,"x_max":0,"o":"m 103 1287 l 351 1287 l 351 1082 l 103 1082 m 97 997 l 355 997 l 355 0 l 97 0 "},"Ì":{"ha":453,"x_min":0,"x_max":0,"o":"m -57 1287 l 204 1287 l 343 1083 l 113 1083 m 97 997 l 355 997 l 355 0 l 97 0 "},"Ī":{"ha":453,"x_min":0,"x_max":0,"o":"m -1 1225 l 456 1225 l 456 1083 l -1 1083 m 97 997 l 355 997 l 355 0 l 97 0 "},"Į":{"ha":453,"x_min":0,"x_max":0,"o":"m 355 0 b 237 -165 298 -69 237 -132 b 262 -183 237 -179 248 -183 b 355 -154 288 -183 326 -170 l 355 -283 b 242 -306 323 -297 282 -306 b 103 -225 170 -306 103 -281 b 260 0 103 -163 175 -77 l 97 0 l 97 997 l 355 997 "},"J":{"ha":704,"x_min":0,"x_max":0,"o":"m 244 -28 b 5 1 175 -28 94 -18 l 5 218 b 160 197 61 204 114 197 b 366 411 283 197 366 225 l 366 997 l 625 997 l 625 389 b 244 -28 625 103 498 -28 "},"K":{"ha":1152,"x_min":0,"x_max":0,"o":"m 598 475 l 358 245 l 358 0 l 97 0 l 97 997 l 358 997 l 358 559 l 815 997 l 1145 997 l 790 659 l 1157 0 l 852 0 "},"Ķ":{"ha":1152,"x_min":0,"x_max":0,"o":"m 1157 0 l 852 0 l 598 475 l 358 245 l 358 0 l 97 0 l 97 997 l 358 997 l 358 559 l 815 997 l 1145 997 l 790 659 m 470 -83 l 682 -83 l 524 -318 l 363 -318 "},"L":{"ha":895,"x_min":0,"x_max":0,"o":"m 97 997 l 358 997 l 358 225 l 888 225 l 888 0 l 97 0 "},"Ĺ":{"ha":895,"x_min":0,"x_max":0,"o":"m 252 1287 l 513 1287 l 343 1083 l 113 1083 m 97 997 l 358 997 l 358 225 l 888 225 l 888 0 l 97 0 "},"Ľ":{"ha":895,"x_min":0,"x_max":0,"o":"m 97 997 l 358 997 l 358 225 l 888 225 l 888 0 l 97 0 m 650 997 l 903 997 l 739 542 l 564 542 "},"Ļ":{"ha":895,"x_min":0,"x_max":0,"o":"m 97 997 l 358 997 l 358 225 l 888 225 l 888 0 l 97 0 m 456 -83 l 668 -83 l 509 -318 l 349 -318 "},"Ł":{"ha":895,"x_min":0,"x_max":0,"o":"m 888 225 l 888 0 l 97 0 l 97 330 l -12 250 l -12 397 l 97 477 l 97 997 l 358 997 l 358 671 l 462 747 l 462 598 l 358 522 l 358 225 "},"M":{"ha":1486,"x_min":0,"x_max":0,"o":"m 1389 997 l 1389 0 l 1126 0 l 1126 785 l 1108 785 l 832 0 l 654 0 l 379 785 l 358 785 l 358 0 l 97 0 l 97 997 l 557 997 l 742 431 l 929 997 "},"N":{"ha":1264,"x_min":0,"x_max":0,"o":"m 1166 997 l 1166 0 l 863 0 l 357 681 l 357 0 l 97 0 l 97 997 l 399 997 l 905 321 l 905 997 "},"Ń":{"ha":1264,"x_min":0,"x_max":0,"o":"m 747 1083 l 517 1083 l 656 1287 l 917 1287 m 1166 997 l 1166 0 l 863 0 l 357 681 l 357 0 l 97 0 l 97 997 l 399 997 l 905 321 l 905 997 "},"Ň":{"ha":1264,"x_min":0,"x_max":0,"o":"m 521 1083 l 359 1287 l 549 1287 l 632 1196 l 715 1287 l 904 1287 l 743 1083 m 1166 997 l 1166 0 l 863 0 l 357 681 l 357 0 l 97 0 l 97 997 l 399 997 l 905 321 l 905 997 "},"Ņ":{"ha":1264,"x_min":0,"x_max":0,"o":"m 1166 997 l 1166 0 l 863 0 l 357 681 l 357 0 l 97 0 l 97 997 l 399 997 l 905 321 l 905 997 m 526 -83 l 738 -83 l 579 -318 l 418 -318 "},"Ŋ":{"ha":1272,"x_min":0,"x_max":0,"o":"m 1175 997 l 1175 0 b 889 -282 1175 -187 1065 -282 b 755 -267 848 -282 803 -278 l 755 -78 b 831 -102 783 -94 808 -102 b 888 -52 864 -102 888 -83 b 871 0 888 -37 882 -20 l 357 682 l 357 0 l 97 0 l 97 997 l 397 997 l 914 318 l 914 997 "},"Ñ":{"ha":1264,"x_min":0,"x_max":0,"o":"m 559 1177 b 514 1092 527 1177 514 1152 l 345 1092 b 545 1311 345 1217 406 1311 b 739 1218 684 1311 688 1218 b 777 1303 767 1218 777 1240 l 947 1303 b 743 1083 947 1182 893 1083 b 559 1177 599 1083 614 1177 m 1166 997 l 1166 0 l 863 0 l 357 681 l 357 0 l 97 0 l 97 997 l 399 997 l 905 321 l 905 997 "},"O":{"ha":1270,"x_min":0,"x_max":0,"o":"m 636 -28 b 29 498 286 -28 29 176 b 636 1025 29 822 286 1025 b 1242 498 983 1025 1242 822 b 636 -28 1242 176 983 -28 m 636 197 b 983 498 832 197 983 304 b 636 800 983 693 832 800 b 289 498 439 800 289 693 b 636 197 289 304 439 197 "},"Ó":{"ha":1270,"x_min":0,"x_max":0,"o":"m 660 1287 l 921 1287 l 751 1083 l 521 1083 m 636 -28 b 29 498 286 -28 29 176 b 636 1025 29 822 286 1025 b 1242 498 983 1025 1242 822 b 636 -28 1242 176 983 -28 m 636 197 b 983 498 832 197 983 304 b 636 800 983 693 832 800 b 289 498 439 800 289 693 b 636 197 289 304 439 197 "},"Ô":{"ha":1270,"x_min":0,"x_max":0,"o":"m 525 1287 l 747 1287 l 908 1083 l 719 1083 l 636 1175 l 553 1083 l 363 1083 m 636 -28 b 29 498 286 -28 29 176 b 636 1025 29 822 286 1025 b 1242 498 983 1025 1242 822 b 636 -28 1242 176 983 -28 m 636 197 b 983 498 832 197 983 304 b 636 800 983 693 832 800 b 289 498 439 800 289 693 b 636 197 289 304 439 197 "},"Ö":{"ha":1270,"x_min":0,"x_max":0,"o":"m 345 1287 l 593 1287 l 593 1082 l 345 1082 m 679 1287 l 928 1287 l 928 1082 l 679 1082 m 636 -28 b 29 498 286 -28 29 176 b 636 1025 29 822 286 1025 b 1242 498 983 1025 1242 822 b 636 -28 1242 176 983 -28 m 636 197 b 983 498 832 197 983 304 b 636 800 983 693 832 800 b 289 498 439 800 289 693 b 636 197 289 304 439 197 "},"Ò":{"ha":1270,"x_min":0,"x_max":0,"o":"m 351 1287 l 612 1287 l 751 1083 l 521 1083 m 636 -28 b 29 498 286 -28 29 176 b 636 1025 29 822 286 1025 b 1242 498 983 1025 1242 822 b 636 -28 1242 176 983 -28 m 636 197 b 983 498 832 197 983 304 b 636 800 983 693 832 800 b 289 498 439 800 289 693 b 636 197 289 304 439 197 "},"Ő":{"ha":1270,"x_min":0,"x_max":0,"o":"m 518 1324 l 785 1324 l 585 1083 l 354 1083 m 851 1324 l 1118 1324 l 918 1083 l 688 1083 m 636 -28 b 29 498 286 -28 29 176 b 636 1025 29 822 286 1025 b 1242 498 983 1025 1242 822 b 636 -28 1242 176 983 -28 m 636 197 b 983 498 832 197 983 304 b 636 800 983 693 832 800 b 289 498 439 800 289 693 b 636 197 289 304 439 197 "},"Ō":{"ha":1270,"x_min":0,"x_max":0,"o":"m 407 1225 l 865 1225 l 865 1083 l 407 1083 m 636 -28 b 29 498 286 -28 29 176 b 636 1025 29 822 286 1025 b 1242 498 983 1025 1242 822 b 636 -28 1242 176 983 -28 m 636 197 b 983 498 832 197 983 304 b 636 800 983 693 832 800 b 289 498 439 800 289 693 b 636 197 289 304 439 197 "},"Ø":{"ha":1270,"x_min":0,"x_max":0,"o":"m 1002 931 b 1242 498 1150 841 1242 691 b 636 -28 1242 176 983 -28 b 367 18 538 -28 447 -12 l 304 -71 l 213 -17 l 270 65 b 29 498 121 155 29 306 b 636 1025 29 822 286 1025 b 905 978 734 1025 825 1008 l 968 1068 l 1060 1014 l 1002 931 m 289 498 b 407 261 289 393 334 312 l 769 782 b 636 800 728 794 684 800 b 289 498 439 800 289 693 m 636 197 b 983 498 832 197 983 304 b 866 735 983 604 939 684 l 504 216 b 636 197 545 203 589 197 "},"Ǿ":{"ha":1270,"x_min":0,"x_max":0,"o":"m 751 1083 l 521 1083 l 660 1287 l 921 1287 m 1002 931 b 1242 498 1150 841 1242 691 b 636 -28 1242 176 983 -28 b 367 18 538 -28 447 -12 l 304 -71 l 213 -17 l 270 65 b 29 498 121 155 29 306 b 636 1025 29 822 286 1025 b 905 978 734 1025 825 1008 l 968 1068 l 1060 1014 l 1002 931 m 289 498 b 407 261 289 393 334 312 l 769 782 b 636 800 728 794 684 800 b 289 498 439 800 289 693 m 636 197 b 983 498 832 197 983 304 b 866 735 983 604 939 684 l 504 216 b 636 197 545 203 589 197 "},"Õ":{"ha":1270,"x_min":0,"x_max":0,"o":"m 747 1083 b 563 1177 603 1083 618 1177 b 518 1092 531 1177 518 1152 l 349 1092 b 549 1311 349 1217 410 1311 b 743 1218 688 1311 692 1218 b 781 1303 771 1218 781 1240 l 951 1303 b 747 1083 951 1182 897 1083 m 636 -28 b 29 498 286 -28 29 176 b 636 1025 29 822 286 1025 b 1242 498 983 1025 1242 822 b 636 -28 1242 176 983 -28 m 636 197 b 983 498 832 197 983 304 b 636 800 983 693 832 800 b 289 498 439 800 289 693 b 636 197 289 304 439 197 "},"Œ":{"ha":1929,"x_min":0,"x_max":0,"o":"m 616 0 b 29 501 199 0 29 203 b 616 997 29 800 199 997 l 1846 997 l 1846 771 l 1175 771 l 1175 610 l 1846 610 l 1846 387 l 1175 387 l 1175 227 l 1846 227 l 1846 0 l 616 0 m 916 227 l 916 771 l 631 771 b 301 501 403 771 301 700 b 631 227 301 302 404 227 "},"P":{"ha":1146,"x_min":0,"x_max":0,"o":"m 703 997 b 1129 664 1022 997 1129 848 b 710 338 1129 478 1019 338 l 358 338 l 358 0 l 97 0 l 97 997 l 703 997 m 705 551 b 868 665 823 551 868 595 b 699 783 868 783 745 783 l 358 783 l 358 551 l 705 551 "},"Þ":{"ha":1145,"x_min":0,"x_max":0,"o":"m 791 888 b 1128 566 1019 888 1128 746 b 791 258 1128 393 1019 258 l 350 258 l 350 0 l 97 0 l 97 997 l 350 997 l 350 888 l 791 888 m 754 478 b 872 574 847 478 872 521 b 754 668 872 628 847 668 l 350 668 l 350 478 l 754 478 "},"Q":{"ha":1303,"x_min":0,"x_max":0,"o":"m 1145 178 b 1257 0 1195 140 1236 90 l 1057 -97 b 985 50 1048 -28 1021 16 b 642 -28 888 -1 771 -28 b 28 498 289 -28 28 176 b 642 1025 28 822 289 1025 b 1257 498 996 1025 1257 822 b 1145 178 1257 372 1216 263 m 642 193 b 755 205 682 193 720 197 b 637 406 706 250 663 310 l 819 493 b 937 314 851 409 892 354 b 997 498 975 361 997 424 b 642 800 997 693 843 800 b 288 498 441 800 288 693 b 642 193 288 300 441 193 "},"R":{"ha":1198,"x_min":0,"x_max":0,"o":"m 896 0 b 868 222 868 74 868 149 b 699 338 868 292 827 338 l 358 338 l 358 0 l 97 0 l 97 997 l 703 997 b 1129 692 1021 997 1129 848 b 968 458 1129 595 1088 503 l 968 444 b 1129 250 1103 412 1129 342 b 1157 0 1129 167 1129 83 m 705 551 b 868 665 823 551 868 595 b 699 783 868 783 745 783 l 358 783 l 358 551 l 705 551 "},"Ŕ":{"ha":1198,"x_min":0,"x_max":0,"o":"m 715 1083 l 485 1083 l 624 1287 l 885 1287 m 896 0 b 868 222 868 74 868 149 b 699 338 868 292 827 338 l 358 338 l 358 0 l 97 0 l 97 997 l 703 997 b 1129 692 1021 997 1129 848 b 968 458 1129 595 1088 503 l 968 444 b 1129 250 1103 412 1129 342 b 1157 0 1129 167 1129 83 m 705 551 b 868 665 823 551 868 595 b 699 783 868 783 745 783 l 358 783 l 358 551 l 705 551 "},"Ř":{"ha":1198,"x_min":0,"x_max":0,"o":"m 489 1083 l 328 1287 l 517 1287 l 600 1196 l 683 1287 l 872 1287 l 711 1083 m 896 0 b 868 222 868 74 868 149 b 699 338 868 292 827 338 l 358 338 l 358 0 l 97 0 l 97 997 l 703 997 b 1129 692 1021 997 1129 848 b 968 458 1129 595 1088 503 l 968 444 b 1129 250 1103 412 1129 342 b 1157 0 1129 167 1129 83 m 705 551 b 868 665 823 551 868 595 b 699 783 868 783 745 783 l 358 783 l 358 551 l 705 551 "},"Ŗ":{"ha":1198,"x_min":0,"x_max":0,"o":"m 896 0 b 868 222 868 74 868 149 b 699 338 868 292 827 338 l 358 338 l 358 0 l 97 0 l 97 997 l 703 997 b 1129 692 1021 997 1129 848 b 968 458 1129 595 1088 503 l 968 444 b 1129 250 1103 412 1129 342 b 1157 0 1129 167 1129 83 m 705 551 b 868 665 823 551 868 595 b 699 783 868 783 745 783 l 358 783 l 358 551 l 705 551 m 494 -83 l 706 -83 l 547 -318 l 387 -318 "},"S":{"ha":1116,"x_min":0,"x_max":0,"o":"m 582 -29 b 21 261 254 -29 86 66 l 286 342 b 596 180 317 228 457 180 b 828 292 757 180 828 218 b 534 400 828 387 703 393 b 54 693 300 410 54 419 b 533 1025 54 892 236 1025 b 1054 762 818 1025 986 939 l 796 699 b 536 815 766 777 681 815 b 306 715 382 815 306 778 b 576 627 306 639 418 633 b 1088 317 817 615 1088 603 b 582 -29 1088 92 916 -29 "},"Ś":{"ha":1116,"x_min":0,"x_max":0,"o":"m 585 1287 l 846 1287 l 676 1083 l 446 1083 m 582 -29 b 21 261 254 -29 86 66 l 286 342 b 596 180 317 228 457 180 b 828 292 757 180 828 218 b 534 400 828 387 703 393 b 54 693 300 410 54 419 b 533 1025 54 892 236 1025 b 1054 762 818 1025 986 939 l 796 699 b 536 815 766 777 681 815 b 306 715 382 815 306 778 b 576 627 306 639 418 633 b 1088 317 817 615 1088 603 b 582 -29 1088 92 916 -29 "},"Š":{"ha":1116,"x_min":0,"x_max":0,"o":"m 288 1287 l 477 1287 l 561 1196 l 644 1287 l 833 1287 l 671 1083 l 450 1083 m 582 -29 b 21 261 254 -29 86 66 l 286 342 b 596 180 317 228 457 180 b 828 292 757 180 828 218 b 534 400 828 387 703 393 b 54 693 300 410 54 419 b 533 1025 54 892 236 1025 b 1054 762 818 1025 986 939 l 796 699 b 536 815 766 777 681 815 b 306 715 382 815 306 778 b 576 627 306 639 418 633 b 1088 317 817 615 1088 603 b 582 -29 1088 92 916 -29 "},"Ş":{"ha":1116,"x_min":0,"x_max":0,"o":"m 1088 317 b 600 -29 1088 96 922 -25 l 569 -77 b 595 -74 578 -75 587 -74 b 726 -204 671 -74 726 -127 b 569 -361 726 -292 656 -361 b 406 -249 481 -361 423 -311 l 511 -215 b 564 -254 519 -241 541 -254 b 616 -204 590 -254 616 -236 b 564 -153 616 -170 590 -153 b 517 -178 545 -153 526 -161 l 432 -131 l 492 -26 b 21 261 223 -9 80 85 l 286 342 b 596 180 317 228 457 180 b 828 292 757 180 828 218 b 534 400 828 387 703 393 b 54 693 300 410 54 419 b 533 1025 54 892 236 1025 b 1054 762 818 1025 986 939 l 796 699 b 536 815 766 777 681 815 b 306 715 382 815 306 778 b 576 627 306 639 418 633 b 1088 317 817 615 1088 603 "},"Ș":{"ha":1116,"x_min":0,"x_max":0,"o":"m 582 -29 b 21 261 254 -29 86 66 l 286 342 b 596 180 317 228 457 180 b 828 292 757 180 828 218 b 534 400 828 387 703 393 b 54 693 300 410 54 419 b 533 1025 54 892 236 1025 b 1054 762 818 1025 986 939 l 796 699 b 536 815 766 777 681 815 b 306 715 382 815 306 778 b 576 627 306 639 418 633 b 1088 317 817 615 1088 603 b 582 -29 1088 92 916 -29 m 454 -83 l 667 -83 l 508 -318 l 347 -318 "},"ẞ":{"ha":1239,"x_min":0,"x_max":0,"o":"m 829 -28 b 457 79 656 -28 549 7 l 593 264 b 803 186 659 212 722 186 b 971 304 899 186 971 229 b 733 424 971 410 856 424 l 518 424 l 710 772 l 358 772 l 358 0 l 97 0 l 97 997 l 1105 997 l 879 621 b 1225 321 1089 602 1225 503 b 829 -28 1225 98 1053 -28 "},"T":{"ha":968,"x_min":0,"x_max":0,"o":"m 960 772 l 612 772 l 612 0 l 354 0 l 354 772 l 7 772 l 7 997 l 960 997 "},"Ŧ":{"ha":968,"x_min":0,"x_max":0,"o":"m 612 772 l 612 572 l 736 572 l 736 425 l 612 425 l 612 0 l 354 0 l 354 425 l 231 425 l 231 572 l 354 572 l 354 772 l 7 772 l 7 997 l 960 997 l 960 772 "},"Ť":{"ha":968,"x_min":0,"x_max":0,"o":"m 372 1083 l 211 1287 l 400 1287 l 484 1196 l 566 1287 l 755 1287 l 594 1083 m 960 772 l 612 772 l 612 0 l 354 0 l 354 772 l 7 772 l 7 997 l 960 997 "},"Ţ":{"ha":968,"x_min":0,"x_max":0,"o":"m 541 0 l 492 -77 b 518 -74 500 -75 510 -74 b 649 -204 593 -74 649 -127 b 492 -361 649 -292 579 -361 b 328 -249 404 -361 346 -311 l 433 -215 b 486 -254 442 -241 464 -254 b 539 -204 513 -254 539 -236 b 486 -153 539 -170 513 -153 b 439 -178 467 -153 449 -161 l 355 -131 l 429 0 l 354 0 l 354 772 l 7 772 l 7 997 l 960 997 l 960 772 l 612 772 l 612 0 "},"Ț":{"ha":968,"x_min":0,"x_max":0,"o":"m 960 772 l 612 772 l 612 0 l 354 0 l 354 772 l 7 772 l 7 997 l 960 997 m 377 -83 l 589 -83 l 431 -318 l 270 -318 "},"U":{"ha":1161,"x_min":0,"x_max":0,"o":"m 581 -28 b 78 347 285 -28 78 77 l 78 997 l 339 997 l 339 380 b 581 197 339 239 431 197 b 822 380 730 197 822 239 l 822 997 l 1083 997 l 1083 347 b 581 -28 1083 77 876 -28 "},"Ú":{"ha":1161,"x_min":0,"x_max":0,"o":"m 604 1287 l 865 1287 l 696 1083 l 465 1083 m 581 -28 b 78 347 285 -28 78 77 l 78 997 l 339 997 l 339 380 b 581 197 339 239 431 197 b 822 380 730 197 822 239 l 822 997 l 1083 997 l 1083 347 b 581 -28 1083 77 876 -28 "},"Û":{"ha":1161,"x_min":0,"x_max":0,"o":"m 469 1287 l 691 1287 l 852 1083 l 663 1083 l 581 1175 l 497 1083 l 308 1083 m 581 -28 b 78 347 285 -28 78 77 l 78 997 l 339 997 l 339 380 b 581 197 339 239 431 197 b 822 380 730 197 822 239 l 822 997 l 1083 997 l 1083 347 b 581 -28 1083 77 876 -28 "},"Ü":{"ha":1161,"x_min":0,"x_max":0,"o":"m 289 1287 l 537 1287 l 537 1082 l 289 1082 m 623 1287 l 872 1287 l 872 1082 l 623 1082 m 581 -28 b 78 347 285 -28 78 77 l 78 997 l 339 997 l 339 380 b 581 197 339 239 431 197 b 822 380 730 197 822 239 l 822 997 l 1083 997 l 1083 347 b 581 -28 1083 77 876 -28 "},"Ù":{"ha":1161,"x_min":0,"x_max":0,"o":"m 296 1287 l 557 1287 l 696 1083 l 465 1083 m 581 -28 b 78 347 285 -28 78 77 l 78 997 l 339 997 l 339 380 b 581 197 339 239 431 197 b 822 380 730 197 822 239 l 822 997 l 1083 997 l 1083 347 b 581 -28 1083 77 876 -28 "},"Ű":{"ha":1161,"x_min":0,"x_max":0,"o":"m 463 1324 l 729 1324 l 529 1083 l 298 1083 m 795 1324 l 1062 1324 l 863 1083 l 632 1083 m 581 -28 b 78 347 285 -28 78 77 l 78 997 l 339 997 l 339 380 b 581 197 339 239 431 197 b 822 380 730 197 822 239 l 822 997 l 1083 997 l 1083 347 b 581 -28 1083 77 876 -28 "},"Ū":{"ha":1161,"x_min":0,"x_max":0,"o":"m 351 1225 l 809 1225 l 809 1083 l 351 1083 m 581 -28 b 78 347 285 -28 78 77 l 78 997 l 339 997 l 339 380 b 581 197 339 239 431 197 b 822 380 730 197 822 239 l 822 997 l 1083 997 l 1083 347 b 581 -28 1083 77 876 -28 "},"Ų":{"ha":1161,"x_min":0,"x_max":0,"o":"m 1083 997 l 1083 347 b 722 -18 1083 122 940 12 b 619 -165 669 -81 619 -135 b 644 -183 619 -179 629 -183 b 737 -154 669 -183 708 -170 l 737 -283 b 624 -306 705 -297 664 -306 b 485 -225 551 -306 485 -281 b 612 -27 485 -171 541 -97 b 581 -28 602 -28 591 -28 b 78 347 285 -28 78 77 l 78 997 l 339 997 l 339 380 b 581 197 339 239 431 197 b 822 380 730 197 822 239 l 822 997 "},"Ů":{"ha":1161,"x_min":0,"x_max":0,"o":"m 581 1042 b 376 1217 456 1042 376 1121 b 581 1392 376 1317 461 1392 b 782 1218 704 1392 782 1312 b 581 1042 782 1121 704 1042 m 581 1152 b 657 1218 633 1152 657 1181 b 581 1284 657 1250 633 1284 b 506 1218 528 1284 506 1250 b 581 1152 506 1181 528 1152 m 581 -28 b 78 347 285 -28 78 77 l 78 997 l 339 997 l 339 380 b 581 197 339 239 431 197 b 822 380 730 197 822 239 l 822 997 l 1083 997 l 1083 347 b 581 -28 1083 77 876 -28 "},"V":{"ha":1174,"x_min":0,"x_max":0,"o":"m -8 997 l 272 997 l 566 227 l 608 227 l 901 997 l 1182 997 l 775 0 l 399 0 "},"W":{"ha":1748,"x_min":0,"x_max":0,"o":"m -1 997 l 269 997 l 486 227 l 503 227 l 681 997 l 1067 997 l 1243 227 l 1260 227 l 1479 997 l 1750 997 l 1446 0 l 1051 0 l 884 771 l 864 771 l 697 0 l 302 0 "},"Ẃ":{"ha":1748,"x_min":0,"x_max":0,"o":"m 897 1287 l 1158 1287 l 989 1083 l 758 1083 m -1 997 l 269 997 l 486 227 l 503 227 l 681 997 l 1067 997 l 1243 227 l 1260 227 l 1479 997 l 1750 997 l 1446 0 l 1051 0 l 884 771 l 864 771 l 697 0 l 302 0 "},"Ŵ":{"ha":1748,"x_min":0,"x_max":0,"o":"m 762 1287 l 984 1287 l 1145 1083 l 956 1083 l 873 1175 l 790 1083 l 601 1083 m -1 997 l 269 997 l 486 227 l 503 227 l 681 997 l 1067 997 l 1243 227 l 1260 227 l 1479 997 l 1750 997 l 1446 0 l 1051 0 l 884 771 l 864 771 l 697 0 l 302 0 "},"Ẅ":{"ha":1748,"x_min":0,"x_max":0,"o":"m 582 1287 l 830 1287 l 830 1082 l 582 1082 m 916 1287 l 1165 1287 l 1165 1082 l 916 1082 m -1 997 l 269 997 l 486 227 l 503 227 l 681 997 l 1067 997 l 1243 227 l 1260 227 l 1479 997 l 1750 997 l 1446 0 l 1051 0 l 884 771 l 864 771 l 697 0 l 302 0 "},"Ẁ":{"ha":1748,"x_min":0,"x_max":0,"o":"m 589 1287 l 850 1287 l 989 1083 l 758 1083 m -1 997 l 269 997 l 486 227 l 503 227 l 681 997 l 1067 997 l 1243 227 l 1260 227 l 1479 997 l 1750 997 l 1446 0 l 1051 0 l 884 771 l 864 771 l 697 0 l 302 0 "},"X":{"ha":1171,"x_min":0,"x_max":0,"o":"m 848 0 l 586 339 l 322 0 l -8 0 l 418 519 l 1 997 l 317 997 l 586 678 l 856 997 l 1171 997 l 753 519 l 1179 0 "},"Y":{"ha":1146,"x_min":0,"x_max":0,"o":"m 704 377 l 704 0 l 443 0 l 443 375 l -17 997 l 285 997 l 574 591 l 863 997 l 1162 997 "},"Ý":{"ha":1146,"x_min":0,"x_max":0,"o":"m 689 1083 l 458 1083 l 597 1287 l 859 1287 m 704 377 l 704 0 l 443 0 l 443 375 l -17 997 l 285 997 l 574 591 l 863 997 l 1162 997 "},"Ŷ":{"ha":1146,"x_min":0,"x_max":0,"o":"m 490 1083 l 301 1083 l 463 1287 l 684 1287 l 846 1083 l 656 1083 l 574 1175 m 704 377 l 704 0 l 443 0 l 443 375 l -17 997 l 285 997 l 574 591 l 863 997 l 1162 997 "},"Ÿ":{"ha":1146,"x_min":0,"x_max":0,"o":"m 530 1082 l 282 1082 l 282 1287 l 530 1287 m 865 1082 l 616 1082 l 616 1287 l 865 1287 m 704 377 l 704 0 l 443 0 l 443 375 l -17 997 l 285 997 l 574 591 l 863 997 l 1162 997 "},"Ỳ":{"ha":1146,"x_min":0,"x_max":0,"o":"m 458 1083 l 289 1287 l 550 1287 l 689 1083 m 704 377 l 704 0 l 443 0 l 443 375 l -17 997 l 285 997 l 574 591 l 863 997 l 1162 997 "},"Z":{"ha":1084,"x_min":0,"x_max":0,"o":"m 1042 227 l 1042 0 l 40 0 l 40 229 l 682 772 l 56 772 l 56 997 l 1034 997 l 1034 768 l 388 227 "},"Ź":{"ha":1084,"x_min":0,"x_max":0,"o":"m 656 1083 l 425 1083 l 564 1287 l 825 1287 m 1042 227 l 1042 0 l 40 0 l 40 229 l 682 772 l 56 772 l 56 997 l 1034 997 l 1034 768 l 388 227 "},"Ž":{"ha":1084,"x_min":0,"x_max":0,"o":"m 429 1083 l 268 1287 l 457 1287 l 541 1196 l 623 1287 l 812 1287 l 651 1083 m 1042 227 l 1042 0 l 40 0 l 40 229 l 682 772 l 56 772 l 56 997 l 1034 997 l 1034 768 l 388 227 "},"Ż":{"ha":1084,"x_min":0,"x_max":0,"o":"m 664 1082 l 416 1082 l 416 1287 l 664 1287 m 1042 227 l 1042 0 l 40 0 l 40 229 l 682 772 l 56 772 l 56 997 l 1034 997 l 1034 768 l 388 227 "},"a":{"ha":921,"x_min":0,"x_max":0,"o":"m 618 0 b 604 71 611 22 606 47 b 313 -28 530 -4 411 -28 b 24 199 161 -28 24 29 b 404 454 24 390 193 428 l 603 479 b 467 581 603 572 541 581 b 267 469 376 581 302 551 l 40 505 b 460 746 79 663 243 746 b 856 440 798 746 856 610 l 856 142 b 875 0 856 96 859 46 m 372 157 b 603 302 492 157 603 210 l 603 311 l 418 285 b 272 212 321 272 272 260 b 372 157 272 170 314 157 "},"á":{"ha":921,"x_min":0,"x_max":0,"o":"m 578 802 l 347 802 l 511 1042 l 778 1042 m 618 0 b 604 71 611 22 606 47 b 313 -28 530 -4 411 -28 b 24 199 161 -28 24 29 b 404 454 24 390 193 428 l 603 479 b 467 581 603 572 541 581 b 267 469 376 581 302 551 l 40 505 b 460 746 79 663 243 746 b 856 440 798 746 856 610 l 856 142 b 875 0 856 96 859 46 m 372 157 b 603 302 492 157 603 210 l 603 311 l 418 285 b 272 212 321 272 272 260 b 372 157 272 170 314 157 "},"ă":{"ha":921,"x_min":0,"x_max":0,"o":"m 461 817 b 189 1042 293 817 189 868 l 370 1042 b 461 942 370 972 400 942 b 554 1042 524 942 554 972 l 734 1042 b 461 817 734 868 631 817 m 618 0 b 604 71 611 22 606 47 b 313 -28 530 -4 411 -28 b 24 199 161 -28 24 29 b 404 454 24 390 193 428 l 603 479 b 467 581 603 572 541 581 b 267 469 376 581 302 551 l 40 505 b 460 746 79 663 243 746 b 856 440 798 746 856 610 l 856 142 b 875 0 856 96 859 46 m 372 157 b 603 302 492 157 603 210 l 603 311 l 418 285 b 272 212 321 272 272 260 b 372 157 272 170 314 157 "},"â":{"ha":921,"x_min":0,"x_max":0,"o":"m 379 838 l 190 838 l 351 1042 l 573 1042 l 734 838 l 545 838 l 463 929 m 618 0 b 604 71 611 22 606 47 b 313 -28 530 -4 411 -28 b 24 199 161 -28 24 29 b 404 454 24 390 193 428 l 603 479 b 467 581 603 572 541 581 b 267 469 376 581 302 551 l 40 505 b 460 746 79 663 243 746 b 856 440 798 746 856 610 l 856 142 b 875 0 856 96 859 46 m 372 157 b 603 302 492 157 603 210 l 603 311 l 418 285 b 272 212 321 272 272 260 b 372 157 272 170 314 157 "},"ä":{"ha":921,"x_min":0,"x_max":0,"o":"m 419 836 l 171 836 l 171 1042 l 419 1042 m 754 836 l 505 836 l 505 1042 l 754 1042 m 618 0 b 604 71 611 22 606 47 b 313 -28 530 -4 411 -28 b 24 199 161 -28 24 29 b 404 454 24 390 193 428 l 603 479 b 467 581 603 572 541 581 b 267 469 376 581 302 551 l 40 505 b 460 746 79 663 243 746 b 856 440 798 746 856 610 l 856 142 b 875 0 856 96 859 46 m 372 157 b 603 302 492 157 603 210 l 603 311 l 418 285 b 272 212 321 272 272 260 b 372 157 272 170 314 157 "},"à":{"ha":921,"x_min":0,"x_max":0,"o":"m 347 802 l 147 1042 l 414 1042 l 578 802 m 618 0 b 604 71 611 22 606 47 b 313 -28 530 -4 411 -28 b 24 199 161 -28 24 29 b 404 454 24 390 193 428 l 603 479 b 467 581 603 572 541 581 b 267 469 376 581 302 551 l 40 505 b 460 746 79 663 243 746 b 856 440 798 746 856 610 l 856 142 b 875 0 856 96 859 46 m 372 157 b 603 302 492 157 603 210 l 603 311 l 418 285 b 272 212 321 272 272 260 b 372 157 272 170 314 157 "},"ā":{"ha":921,"x_min":0,"x_max":0,"o":"m 691 821 l 233 821 l 233 962 l 691 962 m 618 0 b 604 71 611 22 606 47 b 313 -28 530 -4 411 -28 b 24 199 161 -28 24 29 b 404 454 24 390 193 428 l 603 479 b 467 581 603 572 541 581 b 267 469 376 581 302 551 l 40 505 b 460 746 79 663 243 746 b 856 440 798 746 856 610 l 856 142 b 875 0 856 96 859 46 m 372 157 b 603 302 492 157 603 210 l 603 311 l 418 285 b 272 212 321 272 272 260 b 372 157 272 170 314 157 "},"ą":{"ha":921,"x_min":0,"x_max":0,"o":"m 757 -165 b 782 -183 757 -179 767 -183 b 875 -154 807 -183 846 -170 l 875 -283 b 762 -306 843 -297 802 -306 b 623 -225 689 -306 623 -281 b 780 0 623 -163 694 -77 l 618 0 b 604 71 611 22 606 47 b 313 -28 530 -4 411 -28 b 24 199 161 -28 24 29 b 404 454 24 390 193 428 l 603 479 b 467 581 603 572 541 581 b 267 469 376 581 302 551 l 40 505 b 460 746 79 663 243 746 b 856 440 798 746 856 610 l 856 142 b 875 0 856 96 859 46 b 757 -165 818 -69 757 -132 m 372 157 b 603 302 492 157 603 210 l 603 311 l 418 285 b 272 212 321 272 272 260 b 372 157 272 170 314 157 "},"å":{"ha":921,"x_min":0,"x_max":0,"o":"m 463 785 b 256 961 349 785 256 864 b 463 1135 256 1063 349 1135 b 667 961 575 1135 667 1063 b 463 785 667 864 575 785 m 463 1039 b 375 961 413 1039 375 1008 b 463 884 375 914 413 884 b 553 961 514 884 553 914 b 463 1039 553 1008 514 1039 m 618 0 b 604 71 611 22 606 47 b 313 -28 530 -4 411 -28 b 24 199 161 -28 24 29 b 404 454 24 390 193 428 l 603 479 b 467 581 603 572 541 581 b 267 469 376 581 302 551 l 40 505 b 460 746 79 663 243 746 b 856 440 798 746 856 610 l 856 142 b 875 0 856 96 859 46 m 372 157 b 603 302 492 157 603 210 l 603 311 l 418 285 b 272 212 321 272 272 260 b 372 157 272 170 314 157 "},"ã":{"ha":921,"x_min":0,"x_max":0,"o":"m 375 871 b 330 786 343 871 330 846 l 161 786 b 361 1006 161 911 222 1006 b 555 913 500 1006 504 913 b 593 997 583 913 593 935 l 764 997 b 559 778 764 876 709 778 b 375 871 415 778 431 871 m 618 0 b 604 71 611 22 606 47 b 313 -28 530 -4 411 -28 b 24 199 161 -28 24 29 b 404 454 24 390 193 428 l 603 479 b 467 581 603 572 541 581 b 267 469 376 581 302 551 l 40 505 b 460 746 79 663 243 746 b 856 440 798 746 856 610 l 856 142 b 875 0 856 96 859 46 m 372 157 b 603 302 492 157 603 210 l 603 311 l 418 285 b 272 212 321 272 272 260 b 372 157 272 170 314 157 "},"æ":{"ha":1549,"x_min":0,"x_max":0,"o":"m 313 -28 b 24 199 161 -28 24 29 b 404 454 24 390 193 428 l 603 479 b 467 581 603 572 541 581 b 267 469 376 581 282 543 l 40 505 b 460 746 79 663 243 746 b 768 671 614 746 710 718 b 1067 747 846 721 947 747 b 1522 367 1320 747 1522 639 l 1522 310 l 863 310 b 1088 164 879 210 971 164 b 1279 254 1177 164 1244 187 l 1524 225 b 1089 -28 1455 36 1291 -28 b 684 132 905 -28 762 28 l 647 132 b 313 -28 586 8 433 -28 m 1264 481 b 1082 576 1238 545 1169 576 b 878 481 983 576 911 550 m 372 157 b 603 302 492 157 603 210 l 603 311 l 418 285 b 272 212 321 272 272 260 b 372 157 272 170 314 157 "},"b":{"ha":1008,"x_min":0,"x_max":0,"o":"m 579 746 b 987 357 806 746 987 610 b 579 -28 987 109 806 -28 b 319 77 464 -28 366 11 l 314 0 l 78 0 l 78 1042 l 328 1042 l 328 648 b 579 746 376 709 470 746 m 522 175 b 737 357 647 175 737 237 b 522 543 737 481 647 543 b 307 357 396 543 307 481 b 522 175 307 237 396 175 "},"c":{"ha":949,"x_min":0,"x_max":0,"o":"m 488 -28 b 17 359 205 -28 17 123 b 488 746 17 596 205 746 b 933 452 732 746 895 647 l 703 431 b 485 554 677 522 610 554 b 267 359 349 554 267 481 b 485 165 267 253 349 165 b 703 289 610 165 677 197 l 933 268 b 488 -28 895 72 726 -28 "},"ć":{"ha":949,"x_min":0,"x_max":0,"o":"m 538 1042 l 804 1042 l 604 802 l 374 802 m 488 -28 b 17 359 205 -28 17 123 b 488 746 17 596 205 746 b 933 452 732 746 895 647 l 703 431 b 485 554 677 522 610 554 b 267 359 349 554 267 481 b 485 165 267 253 349 165 b 703 289 610 165 677 197 l 933 268 b 488 -28 895 72 726 -28 "},"č":{"ha":949,"x_min":0,"x_max":0,"o":"m 216 1042 l 406 1042 l 489 950 l 572 1042 l 761 1042 l 600 838 l 378 838 m 488 -28 b 17 359 205 -28 17 123 b 488 746 17 596 205 746 b 933 452 732 746 895 647 l 703 431 b 485 554 677 522 610 554 b 267 359 349 554 267 481 b 485 165 267 253 349 165 b 703 289 610 165 677 197 l 933 268 b 488 -28 895 72 726 -28 "},"ç":{"ha":949,"x_min":0,"x_max":0,"o":"m 485 165 b 703 289 610 165 677 197 l 933 268 b 529 -26 897 83 745 -16 l 497 -77 b 524 -74 506 -75 515 -74 b 654 -204 599 -74 654 -127 b 497 -361 654 -292 585 -361 b 334 -249 410 -361 351 -311 l 439 -215 b 492 -254 448 -241 469 -254 b 545 -204 518 -254 545 -236 b 492 -153 545 -170 518 -153 b 445 -178 473 -153 454 -161 l 360 -131 l 420 -25 b 17 359 176 -3 17 142 b 488 746 17 596 205 746 b 933 452 732 746 895 647 l 703 431 b 485 554 677 522 610 554 b 267 359 349 554 267 481 b 485 165 267 253 349 165 "},"ċ":{"ha":949,"x_min":0,"x_max":0,"o":"m 360 1042 l 618 1042 l 618 836 l 360 836 m 488 -28 b 17 359 205 -28 17 123 b 488 746 17 596 205 746 b 933 452 732 746 895 647 l 703 431 b 485 554 677 522 610 554 b 267 359 349 554 267 481 b 485 165 267 253 349 165 b 703 289 610 165 677 197 l 933 268 b 488 -28 895 72 726 -28 "},"d":{"ha":1008,"x_min":0,"x_max":0,"o":"m 930 1042 l 930 0 l 694 0 l 689 77 b 429 -28 643 11 545 -28 b 21 357 203 -28 21 109 b 429 746 21 610 203 746 b 681 648 538 746 632 709 l 681 1042 m 486 175 b 701 357 612 175 701 237 b 486 543 701 481 612 543 b 271 357 361 543 271 481 b 486 175 271 237 361 175 "},"ð":{"ha":905,"x_min":0,"x_max":0,"o":"m 785 585 b 892 335 864 494 892 416 b 453 -28 892 103 700 -28 b 11 332 208 -28 11 100 b 397 664 11 524 186 664 b 446 661 414 664 429 663 l 334 785 l 85 785 l 85 885 l 243 885 l 102 1042 l 383 1042 l 521 885 l 758 885 l 758 785 l 609 785 l 785 585 m 461 192 b 659 343 585 192 661 243 b 458 489 656 443 576 489 b 256 336 335 489 254 435 b 461 192 257 239 342 192 "},"ď":{"ha":1008,"x_min":0,"x_max":0,"o":"m 681 1042 l 930 1042 l 930 0 l 694 0 l 689 77 b 429 -28 643 11 545 -28 b 21 357 203 -28 21 109 b 429 746 21 610 203 746 b 681 648 538 746 632 709 m 1379 997 l 1215 542 l 1040 542 l 1126 997 m 486 175 b 701 357 612 175 701 237 b 486 543 701 481 612 543 b 271 357 361 543 271 481 b 486 175 271 237 361 175 "},"đ":{"ha":1008,"x_min":0,"x_max":0,"o":"m 1006 805 l 930 805 l 930 0 l 694 0 l 689 77 b 429 -28 643 11 545 -28 b 21 357 203 -28 21 109 b 429 746 21 610 203 746 b 681 648 538 746 632 709 l 681 805 l 500 805 l 500 952 l 681 952 l 681 1042 l 930 1042 l 930 952 l 1006 952 m 486 175 b 701 357 612 175 701 237 b 486 543 701 481 612 543 b 271 357 361 543 271 481 b 486 175 271 237 361 175 "},"e":{"ha":956,"x_min":0,"x_max":0,"o":"m 930 225 b 496 -28 863 36 697 -28 b 20 358 208 -28 20 109 b 473 747 20 610 200 747 b 929 367 726 747 928 639 l 929 310 l 269 310 b 494 164 286 210 377 164 b 686 254 583 164 652 187 m 489 576 b 285 481 391 576 317 550 l 671 481 b 489 576 644 545 575 576 "},"é":{"ha":956,"x_min":0,"x_max":0,"o":"m 611 803 l 380 803 l 545 1043 l 811 1043 m 930 225 b 496 -28 863 36 697 -28 b 20 358 208 -28 20 109 b 473 747 20 610 200 747 b 929 367 726 747 928 639 l 929 310 l 269 310 b 494 164 286 210 377 164 b 686 254 583 164 652 187 m 489 576 b 285 481 391 576 317 550 l 671 481 b 489 576 644 545 575 576 "},"ě":{"ha":956,"x_min":0,"x_max":0,"o":"m 385 839 l 223 1043 l 412 1043 l 496 951 l 578 1043 l 768 1043 l 606 839 m 930 225 b 496 -28 863 36 697 -28 b 20 358 208 -28 20 109 b 473 747 20 610 200 747 b 929 367 726 747 928 639 l 929 310 l 269 310 b 494 164 286 210 377 164 b 686 254 583 164 652 187 m 489 576 b 285 481 391 576 317 550 l 671 481 b 489 576 644 545 575 576 "},"ê":{"ha":956,"x_min":0,"x_max":0,"o":"m 412 839 l 223 839 l 385 1043 l 606 1043 l 768 839 l 578 839 l 496 930 m 930 225 b 496 -28 863 36 697 -28 b 20 358 208 -28 20 109 b 473 747 20 610 200 747 b 929 367 726 747 928 639 l 929 310 l 269 310 b 494 164 286 210 377 164 b 686 254 583 164 652 187 m 489 576 b 285 481 391 576 317 550 l 671 481 b 489 576 644 545 575 576 "},"ë":{"ha":956,"x_min":0,"x_max":0,"o":"m 452 838 l 204 838 l 204 1043 l 452 1043 m 787 838 l 538 838 l 538 1043 l 787 1043 m 930 225 b 496 -28 863 36 697 -28 b 20 358 208 -28 20 109 b 473 747 20 610 200 747 b 929 367 726 747 928 639 l 929 310 l 269 310 b 494 164 286 210 377 164 b 686 254 583 164 652 187 m 489 576 b 285 481 391 576 317 550 l 671 481 b 489 576 644 545 575 576 "},"ė":{"ha":956,"x_min":0,"x_max":0,"o":"m 625 838 l 367 838 l 367 1043 l 625 1043 m 930 225 b 496 -28 863 36 697 -28 b 20 358 208 -28 20 109 b 473 747 20 610 200 747 b 929 367 726 747 928 639 l 929 310 l 269 310 b 494 164 286 210 377 164 b 686 254 583 164 652 187 m 489 576 b 285 481 391 576 317 550 l 671 481 b 489 576 644 545 575 576 "},"è":{"ha":956,"x_min":0,"x_max":0,"o":"m 380 803 l 180 1043 l 447 1043 l 611 803 m 930 225 b 496 -28 863 36 697 -28 b 20 358 208 -28 20 109 b 473 747 20 610 200 747 b 929 367 726 747 928 639 l 929 310 l 269 310 b 494 164 286 210 377 164 b 686 254 583 164 652 187 m 489 576 b 285 481 391 576 317 550 l 671 481 b 489 576 644 545 575 576 "},"ē":{"ha":956,"x_min":0,"x_max":0,"o":"m 724 822 l 267 822 l 267 964 l 724 964 m 930 225 b 496 -28 863 36 697 -28 b 20 358 208 -28 20 109 b 473 747 20 610 200 747 b 929 367 726 747 928 639 l 929 310 l 269 310 b 494 164 286 210 377 164 b 686 254 583 164 652 187 m 489 576 b 285 481 391 576 317 550 l 671 481 b 489 576 644 545 575 576 "},"ę":{"ha":956,"x_min":0,"x_max":0,"o":"m 739 -64 b 764 -81 739 -77 749 -81 b 857 -52 789 -81 828 -68 l 857 -182 b 744 -204 825 -195 784 -204 b 605 -123 671 -204 605 -179 b 655 -12 605 -92 625 -52 b 496 -28 606 -23 552 -28 b 20 358 208 -28 20 109 b 473 747 20 610 200 747 b 929 367 726 747 928 639 l 929 310 l 269 310 b 494 164 286 210 377 164 b 686 254 583 164 652 187 l 930 225 b 846 89 911 170 882 125 b 739 -64 793 25 739 -33 m 489 576 b 285 481 391 576 317 550 l 671 481 b 489 576 644 545 575 576 "},"f":{"ha":575,"x_min":0,"x_max":0,"o":"m 494 842 b 411 745 427 842 411 806 l 411 718 l 582 718 l 582 545 l 411 545 l 411 0 l 158 0 l 158 545 l -7 545 l -7 718 l 158 718 l 158 772 b 410 1042 158 949 248 1042 b 582 1014 471 1042 530 1034 l 582 829 b 494 842 546 838 517 842 "},"g":{"ha":979,"x_min":0,"x_max":0,"o":"m 901 718 l 901 114 b 452 -297 901 -195 720 -297 b 37 -117 235 -297 109 -229 l 231 0 b 441 -97 272 -61 335 -97 b 650 94 583 -97 650 -33 l 650 116 b 390 28 601 56 505 28 b 17 382 196 28 17 149 b 397 746 17 614 195 746 b 657 638 517 746 612 700 l 663 718 m 465 225 b 673 382 583 225 673 278 b 465 553 673 486 585 553 b 257 382 347 553 257 486 b 465 225 257 278 349 225 "},"ğ":{"ha":979,"x_min":0,"x_max":0,"o":"m 485 817 b 212 1042 317 817 212 868 l 393 1042 b 485 942 393 972 424 942 b 578 1042 547 942 578 972 l 758 1042 b 485 817 758 868 654 817 m 901 718 l 901 114 b 452 -297 901 -195 720 -297 b 37 -117 235 -297 109 -229 l 231 0 b 441 -97 272 -61 335 -97 b 650 94 583 -97 650 -33 l 650 116 b 390 28 601 56 505 28 b 17 382 196 28 17 149 b 397 746 17 614 195 746 b 657 638 517 746 612 700 l 663 718 m 465 225 b 673 382 583 225 673 278 b 465 553 673 486 585 553 b 257 382 347 553 257 486 b 465 225 257 278 349 225 "},"ģ":{"ha":979,"x_min":0,"x_max":0,"o":"m 591 789 l 289 789 l 453 1042 l 677 1042 m 901 718 l 901 114 b 452 -297 901 -195 720 -297 b 37 -117 235 -297 109 -229 l 231 0 b 441 -97 272 -61 335 -97 b 650 94 583 -97 650 -33 l 650 116 b 390 28 601 56 505 28 b 17 382 196 28 17 149 b 397 746 17 614 195 746 b 657 638 517 746 612 700 l 663 718 m 465 225 b 673 382 583 225 673 278 b 465 553 673 486 585 553 b 257 382 347 553 257 486 b 465 225 257 278 349 225 "},"ġ":{"ha":979,"x_min":0,"x_max":0,"o":"m 616 836 l 357 836 l 357 1042 l 616 1042 m 901 718 l 901 114 b 452 -297 901 -195 720 -297 b 37 -117 235 -297 109 -229 l 231 0 b 441 -97 272 -61 335 -97 b 650 94 583 -97 650 -33 l 650 116 b 390 28 601 56 505 28 b 17 382 196 28 17 149 b 397 746 17 614 195 746 b 657 638 517 746 612 700 l 663 718 m 465 225 b 673 382 583 225 673 278 b 465 553 673 486 585 553 b 257 382 347 553 257 486 b 465 225 257 278 349 225 "},"h":{"ha":935,"x_min":0,"x_max":0,"o":"m 587 732 b 873 456 768 732 873 640 l 873 0 l 624 0 l 624 416 b 492 536 624 510 564 536 b 326 375 419 536 328 513 l 326 0 l 78 0 l 78 1042 l 326 1042 l 326 631 b 587 732 384 693 473 732 "},"ħ":{"ha":935,"x_min":0,"x_max":0,"o":"m 587 732 b 873 456 768 732 873 640 l 873 0 l 624 0 l 624 416 b 492 536 624 510 564 536 b 326 375 419 536 328 513 l 326 0 l 78 0 l 78 805 l 7 805 l 7 952 l 78 952 l 78 1042 l 326 1042 l 326 952 l 513 952 l 513 805 l 326 805 l 326 631 b 587 732 384 693 473 732 "},"i":{"ha":404,"x_min":0,"x_max":0,"o":"m 74 1042 l 332 1042 l 332 836 l 74 836 m 78 718 l 326 718 l 326 0 l 78 0 "},"ı":{"ha":404,"x_min":0,"x_max":0,"o":"m 78 718 l 326 718 l 326 0 l 78 0 "},"í":{"ha":404,"x_min":0,"x_max":0,"o":"m 252 1042 l 518 1042 l 318 802 l 87 802 m 78 718 l 326 718 l 326 0 l 78 0 "},"î":{"ha":404,"x_min":0,"x_max":0,"o":"m 92 1042 l 313 1042 l 475 838 l 286 838 l 203 929 l 119 838 l -70 838 m 78 718 l 326 718 l 326 0 l 78 0 "},"ï":{"ha":404,"x_min":0,"x_max":0,"o":"m -89 1042 l 159 1042 l 159 836 l -89 836 m 245 1042 l 494 1042 l 494 836 l 245 836 m 78 718 l 326 718 l 326 0 l 78 0 "},"ì":{"ha":404,"x_min":0,"x_max":0,"o":"m -113 1042 l 154 1042 l 318 802 l 87 802 m 78 718 l 326 718 l 326 0 l 78 0 "},"ī":{"ha":404,"x_min":0,"x_max":0,"o":"m -26 962 l 431 962 l 431 821 l -26 821 m 78 718 l 326 718 l 326 0 l 78 0 "},"į":{"ha":404,"x_min":0,"x_max":0,"o":"m 332 1042 l 332 836 l 74 836 l 74 1042 m 78 718 l 326 718 l 326 0 b 208 -165 269 -69 208 -132 b 233 -183 208 -179 218 -183 b 326 -154 258 -183 297 -170 l 326 -283 b 213 -306 294 -297 253 -306 b 74 -225 140 -306 74 -281 b 231 0 74 -163 146 -77 l 78 0 "},"j":{"ha":408,"x_min":0,"x_max":0,"o":"m 75 1042 l 334 1042 l 334 836 l 75 836 m 94 -283 b -93 -256 39 -283 -25 -273 l -93 -71 b -5 -83 -57 -79 -28 -83 b 78 14 62 -83 78 -47 l 78 718 l 330 718 l 330 -56 b 94 -283 330 -218 237 -283 "},"ȷ":{"ha":408,"x_min":0,"x_max":0,"o":"m 94 -283 b -93 -256 39 -283 -25 -273 l -93 -71 b -5 -83 -57 -79 -28 -83 b 78 14 62 -83 78 -47 l 78 718 l 330 718 l 330 -56 b 94 -283 330 -218 237 -283 "},"k":{"ha":882,"x_min":0,"x_max":0,"o":"m 608 0 l 446 290 l 330 176 l 330 0 l 78 0 l 78 1042 l 330 1042 l 330 447 l 562 718 l 885 718 l 617 456 l 900 0 "},"ķ":{"ha":882,"x_min":0,"x_max":0,"o":"m 900 0 l 608 0 l 446 290 l 330 176 l 330 0 l 78 0 l 78 1042 l 330 1042 l 330 447 l 562 718 l 885 718 l 617 456 m 327 -83 l 539 -83 l 380 -318 l 220 -318 "},"l":{"ha":406,"x_min":0,"x_max":0,"o":"m 78 1042 l 328 1042 l 328 0 l 78 0 "},"ĺ":{"ha":406,"x_min":0,"x_max":0,"o":"m 227 1332 l 488 1332 l 318 1128 l 87 1128 m 78 1042 l 328 1042 l 328 0 l 78 0 "},"ľ":{"ha":406,"x_min":0,"x_max":0,"o":"m 78 1042 l 328 1042 l 328 0 l 78 0 m 492 997 l 745 997 l 581 542 l 406 542 "},"ļ":{"ha":406,"x_min":0,"x_max":0,"o":"m 78 1042 l 328 1042 l 328 0 l 78 0 m 96 -83 l 309 -83 l 150 -318 l -11 -318 "},"ł":{"ha":406,"x_min":0,"x_max":0,"o":"m 439 595 l 328 513 l 328 0 l 78 0 l 78 330 l -35 247 l -35 394 l 78 477 l 78 1042 l 328 1042 l 328 662 l 439 745 "},"m":{"ha":1466,"x_min":0,"x_max":0,"o":"m 1097 746 b 1398 510 1280 746 1398 669 l 1398 0 l 1149 0 l 1149 437 b 1021 550 1149 521 1088 550 b 865 380 940 550 865 518 l 865 0 l 612 0 l 612 437 b 482 550 612 521 553 550 b 326 367 403 550 326 504 l 326 0 l 78 0 l 78 718 l 326 718 l 326 636 b 572 746 383 706 469 746 b 837 635 699 746 792 708 b 1097 746 897 711 987 746 "},"n":{"ha":937,"x_min":0,"x_max":0,"o":"m 574 746 b 873 484 770 746 873 654 l 873 0 l 624 0 l 624 431 b 493 550 624 524 562 550 b 326 375 410 550 328 519 l 326 0 l 78 0 l 78 718 l 326 718 l 326 646 b 574 746 382 707 469 746 "},"ń":{"ha":937,"x_min":0,"x_max":0,"o":"m 581 802 l 350 802 l 514 1042 l 781 1042 m 574 746 b 873 484 770 746 873 654 l 873 0 l 624 0 l 624 431 b 493 550 624 524 562 550 b 326 375 410 550 328 519 l 326 0 l 78 0 l 78 718 l 326 718 l 326 646 b 574 746 382 707 469 746 "},"ň":{"ha":937,"x_min":0,"x_max":0,"o":"m 354 838 l 193 1042 l 382 1042 l 465 950 l 548 1042 l 737 1042 l 576 838 m 574 746 b 873 484 770 746 873 654 l 873 0 l 624 0 l 624 431 b 493 550 624 524 562 550 b 326 375 410 550 328 519 l 326 0 l 78 0 l 78 718 l 326 718 l 326 646 b 574 746 382 707 469 746 "},"ņ":{"ha":937,"x_min":0,"x_max":0,"o":"m 574 746 b 873 484 770 746 873 654 l 873 0 l 624 0 l 624 431 b 493 550 624 524 562 550 b 326 375 410 550 328 519 l 326 0 l 78 0 l 78 718 l 326 718 l 326 646 b 574 746 382 707 469 746 m 359 -83 l 571 -83 l 412 -318 l 252 -318 "},"ŋ":{"ha":974,"x_min":0,"x_max":0,"o":"m 603 746 b 909 484 798 746 909 654 l 909 -78 b 659 -347 909 -254 821 -347 b 486 -319 597 -347 545 -343 l 486 -135 b 574 -147 522 -143 551 -147 b 659 -50 642 -147 659 -111 l 659 431 b 511 550 659 524 590 550 b 328 375 418 550 329 519 l 328 0 l 78 0 l 78 718 l 328 718 l 328 637 b 603 746 389 703 485 746 "},"ñ":{"ha":937,"x_min":0,"x_max":0,"o":"m 378 871 b 333 786 346 871 333 846 l 163 786 b 363 1006 163 911 225 1006 b 558 913 503 1006 507 913 b 595 997 586 913 595 935 l 766 997 b 562 778 766 876 712 778 b 378 871 418 778 433 871 m 574 746 b 873 484 770 746 873 654 l 873 0 l 624 0 l 624 431 b 493 550 624 524 562 550 b 326 375 410 550 328 519 l 326 0 l 78 0 l 78 718 l 326 718 l 326 646 b 574 746 382 707 469 746 "},"o":{"ha":972,"x_min":0,"x_max":0,"o":"m 486 -28 b 18 359 214 -28 18 109 b 486 746 18 610 212 746 b 954 359 761 746 954 610 b 486 -28 954 109 760 -28 m 484 165 b 705 359 615 165 705 239 b 484 554 705 481 615 554 b 267 359 355 554 267 481 b 484 165 267 239 355 165 "},"ó":{"ha":972,"x_min":0,"x_max":0,"o":"m 535 1042 l 802 1042 l 602 802 l 371 802 m 486 -28 b 18 359 214 -28 18 109 b 486 746 18 610 212 746 b 954 359 761 746 954 610 b 486 -28 954 109 760 -28 m 484 165 b 705 359 615 165 705 239 b 484 554 705 481 615 554 b 267 359 355 554 267 481 b 484 165 267 239 355 165 "},"ô":{"ha":972,"x_min":0,"x_max":0,"o":"m 375 1042 l 597 1042 l 758 838 l 569 838 l 486 929 l 403 838 l 214 838 m 486 -28 b 18 359 214 -28 18 109 b 486 746 18 610 212 746 b 954 359 761 746 954 610 b 486 -28 954 109 760 -28 m 484 165 b 705 359 615 165 705 239 b 484 554 705 481 615 554 b 267 359 355 554 267 481 b 484 165 267 239 355 165 "},"ö":{"ha":972,"x_min":0,"x_max":0,"o":"m 195 1042 l 443 1042 l 443 836 l 195 836 m 529 1042 l 778 1042 l 778 836 l 529 836 m 486 -28 b 18 359 214 -28 18 109 b 486 746 18 610 212 746 b 954 359 761 746 954 610 b 486 -28 954 109 760 -28 m 484 165 b 705 359 615 165 705 239 b 484 554 705 481 615 554 b 267 359 355 554 267 481 b 484 165 267 239 355 165 "},"ò":{"ha":972,"x_min":0,"x_max":0,"o":"m 171 1042 l 437 1042 l 602 802 l 371 802 m 486 -28 b 18 359 214 -28 18 109 b 486 746 18 610 212 746 b 954 359 761 746 954 610 b 486 -28 954 109 760 -28 m 484 165 b 705 359 615 165 705 239 b 484 554 705 481 615 554 b 267 359 355 554 267 481 b 484 165 267 239 355 165 "},"ő":{"ha":972,"x_min":0,"x_max":0,"o":"m 368 1042 l 635 1042 l 435 802 l 204 802 m 701 1042 l 968 1042 l 768 802 l 538 802 m 486 -28 b 18 359 214 -28 18 109 b 486 746 18 610 212 746 b 954 359 761 746 954 610 b 486 -28 954 109 760 -28 m 484 165 b 705 359 615 165 705 239 b 484 554 705 481 615 554 b 267 359 355 554 267 481 b 484 165 267 239 355 165 "},"ō":{"ha":972,"x_min":0,"x_max":0,"o":"m 257 962 l 715 962 l 715 821 l 257 821 m 486 -28 b 18 359 214 -28 18 109 b 486 746 18 610 212 746 b 954 359 761 746 954 610 b 486 -28 954 109 760 -28 m 484 165 b 705 359 615 165 705 239 b 484 554 705 481 615 554 b 267 359 355 554 267 481 b 484 165 267 239 355 165 "},"ø":{"ha":972,"x_min":0,"x_max":0,"o":"m 773 680 b 954 359 886 616 954 508 b 486 -28 954 109 760 -28 b 298 -3 418 -28 355 -19 l 258 -60 l 167 -5 l 198 39 b 18 359 86 103 18 212 b 486 746 18 610 212 746 b 673 722 554 746 617 738 l 711 777 l 803 722 l 773 680 m 267 359 b 323 220 267 300 288 253 l 551 547 b 484 554 530 551 508 554 b 267 359 355 554 267 481 m 484 165 b 705 359 615 165 705 239 b 648 499 705 418 684 466 l 420 172 b 484 165 439 168 461 165 "},"ǿ":{"ha":972,"x_min":0,"x_max":0,"o":"m 602 802 l 371 802 l 535 1042 l 802 1042 m 773 680 b 954 359 886 616 954 508 b 486 -28 954 109 760 -28 b 298 -3 418 -28 355 -19 l 258 -60 l 167 -5 l 198 39 b 18 359 86 103 18 212 b 486 746 18 610 212 746 b 673 722 554 746 617 738 l 711 777 l 803 722 l 773 680 m 267 359 b 323 220 267 300 288 253 l 551 547 b 484 554 530 551 508 554 b 267 359 355 554 267 481 m 484 165 b 705 359 615 165 705 239 b 648 499 705 418 684 466 l 420 172 b 484 165 439 168 461 165 "},"õ":{"ha":972,"x_min":0,"x_max":0,"o":"m 583 778 b 399 871 439 778 454 871 b 354 786 367 871 354 846 l 184 786 b 385 1006 184 911 246 1006 b 579 913 524 1006 528 913 b 616 997 607 913 616 935 l 787 997 b 583 778 787 876 733 778 m 486 -28 b 18 359 214 -28 18 109 b 486 746 18 610 212 746 b 954 359 761 746 954 610 b 486 -28 954 109 760 -28 m 484 165 b 705 359 615 165 705 239 b 484 554 705 481 615 554 b 267 359 355 554 267 481 b 484 165 267 239 355 165 "},"œ":{"ha":1642,"x_min":0,"x_max":0,"o":"m 1617 227 b 1182 -26 1549 37 1383 -26 b 830 77 1035 -26 913 9 b 486 -28 747 8 627 -28 b 18 359 214 -28 18 109 b 486 746 18 610 212 746 b 825 645 625 746 743 711 b 1160 749 905 713 1021 749 b 1615 368 1413 749 1615 640 l 1615 311 l 955 311 b 1181 165 972 212 1063 165 b 1372 256 1270 165 1337 189 m 1175 578 b 971 482 1077 578 1004 551 l 1357 482 b 1175 578 1331 547 1261 578 m 484 165 b 705 359 615 165 705 239 b 484 554 705 481 615 554 b 267 359 355 554 267 481 b 484 165 267 239 355 165 "},"p":{"ha":1008,"x_min":0,"x_max":0,"o":"m 579 746 b 987 357 806 746 987 610 b 579 -28 987 109 806 -28 b 328 66 470 -28 376 7 l 328 -269 l 78 -269 l 78 718 l 314 718 l 320 637 b 579 746 366 705 464 746 m 522 175 b 737 357 647 175 737 237 b 522 543 737 481 647 543 b 307 357 396 543 307 481 b 522 175 307 237 396 175 "},"þ":{"ha":1010,"x_min":0,"x_max":0,"o":"m 581 746 b 989 357 807 746 989 610 b 581 -28 989 109 807 -28 b 329 66 471 -28 378 7 l 329 -269 l 79 -269 l 79 1042 l 329 1042 l 329 648 b 581 746 378 709 471 746 m 524 175 b 739 357 648 175 739 237 b 524 543 739 481 648 543 b 309 357 397 543 309 481 b 524 175 309 237 397 175 "},"q":{"ha":1008,"x_min":0,"x_max":0,"o":"m 930 718 l 930 -269 l 681 -269 l 681 66 b 429 -28 632 7 538 -28 b 21 357 203 -28 21 109 b 429 746 21 610 203 746 b 688 637 545 746 643 705 l 694 718 m 486 175 b 701 357 612 175 701 237 b 486 543 701 481 612 543 b 271 357 361 543 271 481 b 486 175 271 237 361 175 "},"r":{"ha":593,"x_min":0,"x_max":0,"o":"m 78 718 l 317 718 l 317 564 l 326 564 b 595 746 354 676 454 746 l 595 510 b 319 232 412 510 319 433 l 319 0 l 78 0 "},"ŕ":{"ha":593,"x_min":0,"x_max":0,"o":"m 311 1042 l 578 1042 l 378 802 l 147 802 m 78 718 l 317 718 l 317 564 l 326 564 b 595 746 354 676 454 746 l 595 510 b 319 232 412 510 319 433 l 319 0 l 78 0 "},"ř":{"ha":593,"x_min":0,"x_max":0,"o":"m -10 1042 l 179 1042 l 262 950 l 345 1042 l 534 1042 l 373 838 l 151 838 m 78 718 l 317 718 l 317 564 l 326 564 b 595 746 354 676 454 746 l 595 510 b 319 232 412 510 319 433 l 319 0 l 78 0 "},"ŗ":{"ha":593,"x_min":0,"x_max":0,"o":"m 78 718 l 317 718 l 317 564 l 326 564 b 595 746 354 676 454 746 l 595 510 b 319 232 412 510 319 433 l 319 0 l 78 0 m 96 -83 l 309 -83 l 150 -318 l -11 -318 "},"s":{"ha":848,"x_min":0,"x_max":0,"o":"m 437 -28 b 18 186 224 -28 58 40 l 240 243 b 452 140 279 158 359 140 b 585 214 525 140 585 163 b 39 497 585 359 39 140 b 411 746 39 653 184 746 b 811 543 619 746 747 686 l 585 501 b 399 586 554 553 493 586 b 267 518 318 586 267 561 b 825 240 267 380 825 611 b 437 -28 825 45 657 -28 "},"ś":{"ha":848,"x_min":0,"x_max":0,"o":"m 471 1043 l 738 1043 l 538 803 l 307 803 m 437 -28 b 18 186 224 -28 58 40 l 240 243 b 452 140 279 158 359 140 b 585 214 525 140 585 163 b 39 497 585 359 39 140 b 411 746 39 653 184 746 b 811 543 619 746 747 686 l 585 501 b 399 586 554 553 493 586 b 267 518 318 586 267 561 b 825 240 267 380 825 611 b 437 -28 825 45 657 -28 "},"š":{"ha":848,"x_min":0,"x_max":0,"o":"m 150 1043 l 339 1043 l 422 951 l 505 1043 l 694 1043 l 533 839 l 311 839 m 437 -28 b 18 186 224 -28 58 40 l 240 243 b 452 140 279 158 359 140 b 585 214 525 140 585 163 b 39 497 585 359 39 140 b 411 746 39 653 184 746 b 811 543 619 746 747 686 l 585 501 b 399 586 554 553 493 586 b 267 518 318 586 267 561 b 825 240 267 380 825 611 b 437 -28 825 45 657 -28 "},"ş":{"ha":848,"x_min":0,"x_max":0,"o":"m 825 240 b 461 -28 825 52 669 -22 l 431 -75 b 457 -73 439 -74 449 -73 b 588 -203 532 -73 588 -126 b 431 -359 588 -290 518 -359 b 267 -248 343 -359 285 -310 l 372 -214 b 425 -253 381 -240 403 -253 b 478 -203 452 -253 478 -235 b 425 -151 478 -168 452 -151 b 378 -176 406 -151 388 -160 l 294 -130 l 354 -24 b 18 186 182 -8 53 60 l 240 243 b 452 140 279 158 359 140 b 585 214 525 140 585 163 b 39 497 585 359 39 140 b 411 746 39 653 184 746 b 811 543 619 746 747 686 l 585 501 b 399 586 554 553 493 586 b 267 518 318 586 267 561 b 825 240 267 380 825 611 "},"ș":{"ha":848,"x_min":0,"x_max":0,"o":"m 437 -28 b 18 186 224 -28 58 40 l 240 243 b 452 140 279 158 359 140 b 585 214 525 140 585 163 b 39 497 585 359 39 140 b 411 746 39 653 184 746 b 811 543 619 746 747 686 l 585 501 b 399 586 554 553 493 586 b 267 518 318 586 267 561 b 825 240 267 380 825 611 b 437 -28 825 45 657 -28 m 316 -82 l 528 -82 l 370 -317 l 209 -317 "},"ß":{"ha":1218,"x_min":0,"x_max":0,"o":"m 838 -14 b 404 93 697 -14 539 26 l 536 278 b 839 178 619 231 739 178 b 946 227 896 178 946 195 b 441 538 946 313 441 232 b 872 751 441 821 872 664 b 616 835 872 798 786 835 b 329 507 329 835 329 692 l 329 0 l 77 0 l 77 507 b 593 1055 77 729 106 1055 b 1126 730 975 1055 1126 892 b 682 517 1126 421 682 595 b 1200 232 682 415 1200 554 b 838 -14 1200 77 1043 -14 "},"t":{"ha":572,"x_min":0,"x_max":0,"o":"m 334 -28 b 110 200 197 -28 110 47 l 110 545 l 0 545 l 0 718 b 184 917 126 726 172 778 l 359 917 l 359 718 l 533 718 l 533 545 l 359 545 l 359 269 b 440 175 359 203 393 175 b 533 199 469 175 501 183 l 533 14 b 334 -28 460 -14 392 -28 "},"ŧ":{"ha":572,"x_min":0,"x_max":0,"o":"m 359 545 l 359 433 l 490 433 l 490 286 l 359 286 l 359 269 b 440 175 359 203 393 175 b 533 199 469 175 501 183 l 533 14 b 334 -28 460 -14 392 -28 b 110 200 197 -28 110 47 l 110 286 l -15 286 l -15 433 l 110 433 l 110 545 l 0 545 l 0 718 b 184 917 126 726 172 778 l 359 917 l 359 718 l 533 718 l 533 545 "},"ť":{"ha":572,"x_min":0,"x_max":0,"o":"m 524 1251 l 777 1251 l 612 796 l 437 796 m 334 -28 b 110 200 197 -28 110 47 l 110 545 l 0 545 l 0 718 b 184 917 126 726 172 778 l 359 917 l 359 718 l 533 718 l 533 545 l 359 545 l 359 269 b 440 175 359 203 393 175 b 533 199 469 175 501 183 l 533 14 b 334 -28 460 -14 392 -28 "},"ţ":{"ha":572,"x_min":0,"x_max":0,"o":"m 359 545 l 359 269 b 440 175 359 203 393 175 b 533 199 469 175 501 183 l 533 14 b 352 -27 467 -11 406 -24 l 321 -77 b 347 -74 330 -75 339 -74 b 478 -204 422 -74 478 -127 b 321 -361 478 -292 408 -361 b 157 -249 233 -361 175 -311 l 262 -215 b 315 -254 271 -241 293 -254 b 368 -204 342 -254 368 -236 b 315 -153 368 -170 342 -153 b 269 -178 296 -153 278 -161 l 184 -131 l 249 -16 b 110 200 162 10 110 82 l 110 545 l 0 545 l 0 718 b 184 917 126 726 172 778 l 359 917 l 359 718 l 533 718 l 533 545 "},"ț":{"ha":572,"x_min":0,"x_max":0,"o":"m 334 -28 b 110 200 197 -28 110 47 l 110 545 l 0 545 l 0 718 b 184 917 126 726 172 778 l 359 917 l 359 718 l 533 718 l 533 545 l 359 545 l 359 269 b 440 175 359 203 393 175 b 533 199 469 175 501 183 l 533 14 b 334 -28 460 -14 392 -28 m 206 -83 l 418 -83 l 260 -318 l 99 -318 "},"u":{"ha":937,"x_min":0,"x_max":0,"o":"m 860 718 l 860 0 l 611 0 l 611 71 b 364 -28 555 10 469 -28 b 64 235 168 -28 64 64 l 64 718 l 314 718 l 314 288 b 444 168 314 195 375 168 b 611 343 528 168 610 199 l 611 718 "},"ú":{"ha":937,"x_min":0,"x_max":0,"o":"m 587 802 l 357 802 l 521 1042 l 787 1042 m 860 718 l 860 0 l 611 0 l 611 71 b 364 -28 555 10 469 -28 b 64 235 168 -28 64 64 l 64 718 l 314 718 l 314 288 b 444 168 314 195 375 168 b 611 343 528 168 610 199 l 611 718 "},"û":{"ha":937,"x_min":0,"x_max":0,"o":"m 389 838 l 199 838 l 361 1042 l 583 1042 l 744 838 l 555 838 l 472 929 m 860 718 l 860 0 l 611 0 l 611 71 b 364 -28 555 10 469 -28 b 64 235 168 -28 64 64 l 64 718 l 314 718 l 314 288 b 444 168 314 195 375 168 b 611 343 528 168 610 199 l 611 718 "},"ü":{"ha":937,"x_min":0,"x_max":0,"o":"m 429 836 l 180 836 l 180 1042 l 429 1042 m 764 836 l 515 836 l 515 1042 l 764 1042 m 860 718 l 860 0 l 611 0 l 611 71 b 364 -28 555 10 469 -28 b 64 235 168 -28 64 64 l 64 718 l 314 718 l 314 288 b 444 168 314 195 375 168 b 611 343 528 168 610 199 l 611 718 "},"ù":{"ha":937,"x_min":0,"x_max":0,"o":"m 357 802 l 157 1042 l 423 1042 l 587 802 m 860 718 l 860 0 l 611 0 l 611 71 b 364 -28 555 10 469 -28 b 64 235 168 -28 64 64 l 64 718 l 314 718 l 314 288 b 444 168 314 195 375 168 b 611 343 528 168 610 199 l 611 718 "},"ű":{"ha":937,"x_min":0,"x_max":0,"o":"m 420 802 l 190 802 l 354 1042 l 621 1042 m 524 802 l 687 1042 l 954 1042 l 754 802 m 611 718 l 860 718 l 860 0 l 611 0 l 611 71 b 364 -28 555 10 469 -28 b 64 235 168 -28 64 64 l 64 718 l 314 718 l 314 288 b 444 168 314 195 375 168 b 611 343 528 168 610 199 "},"ū":{"ha":937,"x_min":0,"x_max":0,"o":"m 701 821 l 243 821 l 243 962 l 701 962 m 860 718 l 860 0 l 611 0 l 611 71 b 364 -28 555 10 469 -28 b 64 235 168 -28 64 64 l 64 718 l 314 718 l 314 288 b 444 168 314 195 375 168 b 611 343 528 168 610 199 l 611 718 "},"ų":{"ha":937,"x_min":0,"x_max":0,"o":"m 860 0 b 742 -165 803 -69 742 -132 b 767 -183 742 -179 752 -183 b 860 -154 792 -183 831 -170 l 860 -283 b 747 -306 828 -297 787 -306 b 608 -225 674 -306 608 -281 b 765 0 608 -163 680 -77 l 611 0 l 611 71 b 364 -28 555 10 469 -28 b 64 235 168 -28 64 64 l 64 718 l 314 718 l 314 288 b 444 168 314 195 375 168 b 611 343 528 168 610 199 l 611 718 l 860 718 "},"ů":{"ha":937,"x_min":0,"x_max":0,"o":"m 472 785 b 265 961 358 785 265 864 b 472 1135 265 1063 358 1135 b 676 961 585 1135 676 1063 b 472 785 676 864 585 785 m 472 1039 b 385 961 422 1039 385 1008 b 472 884 385 914 422 884 b 562 961 524 884 562 914 b 472 1039 562 1008 524 1039 m 860 718 l 860 0 l 611 0 l 611 71 b 364 -28 555 10 469 -28 b 64 235 168 -28 64 64 l 64 718 l 314 718 l 314 288 b 444 168 314 195 375 168 b 611 343 528 168 610 199 l 611 718 "},"v":{"ha":822,"x_min":0,"x_max":0,"o":"m -12 718 l 250 718 l 406 174 l 416 174 l 572 718 l 835 718 l 606 0 l 216 0 "},"w":{"ha":1457,"x_min":0,"x_max":0,"o":"m -12 717 l 252 717 l 407 172 l 419 172 l 547 717 l 908 717 l 1036 172 l 1047 172 l 1206 717 l 1470 717 l 1238 -1 l 856 -1 l 734 543 l 721 543 l 602 -1 l 220 -1 "},"ẃ":{"ha":1457,"x_min":0,"x_max":0,"o":"m 778 1042 l 1044 1042 l 844 802 l 614 802 m -12 717 l 252 717 l 407 172 l 419 172 l 547 717 l 908 717 l 1036 172 l 1047 172 l 1206 717 l 1470 717 l 1238 -1 l 856 -1 l 734 543 l 721 543 l 602 -1 l 220 -1 "},"ŵ":{"ha":1457,"x_min":0,"x_max":0,"o":"m 618 1042 l 840 1042 l 1001 838 l 812 838 l 729 929 l 646 838 l 456 838 m -12 717 l 252 717 l 407 172 l 419 172 l 547 717 l 908 717 l 1036 172 l 1047 172 l 1206 717 l 1470 717 l 1238 -1 l 856 -1 l 734 543 l 721 543 l 602 -1 l 220 -1 "},"ẅ":{"ha":1457,"x_min":0,"x_max":0,"o":"m 437 1042 l 686 1042 l 686 836 l 437 836 m 772 1042 l 1021 1042 l 1021 836 l 772 836 m -12 717 l 252 717 l 407 172 l 419 172 l 547 717 l 908 717 l 1036 172 l 1047 172 l 1206 717 l 1470 717 l 1238 -1 l 856 -1 l 734 543 l 721 543 l 602 -1 l 220 -1 "},"ẁ":{"ha":1457,"x_min":0,"x_max":0,"o":"m 414 1042 l 680 1042 l 844 802 l 614 802 m -12 717 l 252 717 l 407 172 l 419 172 l 547 717 l 908 717 l 1036 172 l 1047 172 l 1206 717 l 1470 717 l 1238 -1 l 856 -1 l 734 543 l 721 543 l 602 -1 l 220 -1 "},"x":{"ha":917,"x_min":0,"x_max":0,"o":"m 309 359 l -20 718 l 292 718 l 460 507 l 628 718 l 936 718 l 607 358 l 936 0 l 628 0 l 461 208 l 293 0 l -20 0 "},"y":{"ha":822,"x_min":0,"x_max":0,"o":"m 275 -297 b 53 -275 222 -297 146 -289 l 53 -81 b 376 -97 172 -104 306 -121 l 376 -81 b 197 60 261 -81 227 -31 l -12 718 l 250 718 l 406 132 l 416 132 l 572 718 l 835 718 l 597 -28 b 275 -297 566 -129 510 -297 "},"ý":{"ha":822,"x_min":0,"x_max":0,"o":"m 460 1042 l 726 1042 l 526 802 l 296 802 m 275 -297 b 53 -275 222 -297 146 -289 l 53 -81 b 376 -97 172 -104 306 -121 l 376 -81 b 197 60 261 -81 227 -31 l -12 718 l 250 718 l 406 132 l 416 132 l 572 718 l 835 718 l 597 -28 b 275 -297 566 -129 510 -297 "},"ŷ":{"ha":822,"x_min":0,"x_max":0,"o":"m 300 1042 l 522 1042 l 683 838 l 494 838 l 411 929 l 328 838 l 138 838 m 275 -297 b 53 -275 222 -297 146 -289 l 53 -81 b 376 -97 172 -104 306 -121 l 376 -81 b 197 60 261 -81 227 -31 l -12 718 l 250 718 l 406 132 l 416 132 l 572 718 l 835 718 l 597 -28 b 275 -297 566 -129 510 -297 "},"ÿ":{"ha":822,"x_min":0,"x_max":0,"o":"m 119 1042 l 368 1042 l 368 836 l 119 836 m 454 1042 l 703 1042 l 703 836 l 454 836 m 275 -297 b 53 -275 222 -297 146 -289 l 53 -81 b 376 -97 172 -104 306 -121 l 376 -81 b 197 60 261 -81 227 -31 l -12 718 l 250 718 l 406 132 l 416 132 l 572 718 l 835 718 l 597 -28 b 275 -297 566 -129 510 -297 "},"ỳ":{"ha":822,"x_min":0,"x_max":0,"o":"m 96 1042 l 362 1042 l 526 802 l 296 802 m 275 -297 b 53 -275 222 -297 146 -289 l 53 -81 b 376 -97 172 -104 306 -121 l 376 -81 b 197 60 261 -81 227 -31 l -12 718 l 250 718 l 406 132 l 416 132 l 572 718 l 835 718 l 597 -28 b 275 -297 566 -129 510 -297 "},"z":{"ha":745,"x_min":0,"x_max":0,"o":"m 703 534 l 334 187 l 703 187 l 703 0 l 35 0 l 35 186 l 418 530 l 49 530 l 49 718 l 703 718 "},"ź":{"ha":745,"x_min":0,"x_max":0,"o":"m 493 802 l 262 802 l 427 1042 l 693 1042 m 703 534 l 334 187 l 703 187 l 703 0 l 35 0 l 35 186 l 418 530 l 49 530 l 49 718 l 703 718 "},"ž":{"ha":745,"x_min":0,"x_max":0,"o":"m 267 838 l 105 1042 l 294 1042 l 378 950 l 460 1042 l 650 1042 l 488 838 m 703 534 l 334 187 l 703 187 l 703 0 l 35 0 l 35 186 l 418 530 l 49 530 l 49 718 l 703 718 "},"ż":{"ha":745,"x_min":0,"x_max":0,"o":"m 507 836 l 249 836 l 249 1042 l 507 1042 m 703 534 l 334 187 l 703 187 l 703 0 l 35 0 l 35 186 l 418 530 l 49 530 l 49 718 l 703 718 "},"ﬁ":{"ha":979,"x_min":0,"x_max":0,"o":"m 158 772 b 410 1042 158 949 248 1042 b 582 1014 471 1042 530 1034 l 582 829 b 494 842 546 838 517 842 b 411 745 427 842 411 806 l 411 718 l 582 718 l 582 545 l 411 545 l 411 0 l 158 0 l 158 545 l -7 545 l -7 718 l 158 718 l 158 772 m 907 1042 l 907 836 l 649 836 l 649 1042 m 653 718 l 901 718 l 901 0 l 653 0 "},"ª":{"ha":661,"x_min":0,"x_max":0,"o":"m 585 997 l 585 581 l 443 581 l 443 636 b 268 572 403 597 343 572 b 29 789 117 572 29 668 b 268 1006 29 909 117 1006 b 443 942 343 1006 403 981 l 443 997 m 301 690 b 443 789 382 690 443 721 b 301 888 443 859 380 888 b 170 789 205 888 170 844 b 301 690 170 734 205 690 "},"º":{"ha":648,"x_min":0,"x_max":0,"o":"m 322 578 b 46 794 140 578 46 673 b 322 1011 46 916 140 1011 b 602 794 505 1011 602 916 b 322 578 602 673 505 578 m 322 696 b 460 794 425 696 460 741 b 322 893 460 850 425 893 b 186 794 221 893 186 850 b 322 696 186 741 221 696 "},"Δ":{"ha":1250,"x_min":0,"x_max":0,"o":"m 1261 0 l -11 0 l 490 1042 l 760 1042 m 895 232 l 626 815 l 356 232 "},"Ω":{"ha":1353,"x_min":0,"x_max":0,"o":"m 40 212 l 248 212 l 248 215 b 71 574 165 282 71 424 b 681 1048 71 840 313 1048 b 1283 574 1072 1048 1283 819 b 1099 215 1283 446 1202 300 l 1099 212 l 1312 212 l 1312 0 l 760 0 l 760 160 b 999 533 893 222 999 347 b 682 832 999 730 884 832 b 353 533 493 832 353 733 b 595 160 353 343 467 208 l 595 0 l 40 0 "},"μ":{"ha":937,"x_min":0,"x_max":0,"o":"m 860 718 l 860 0 l 608 0 l 608 77 b 386 -12 551 19 473 -12 b 260 11 341 -12 298 -4 l 260 -326 l 78 -326 l 78 718 l 330 718 l 330 343 b 461 204 330 240 389 204 b 608 343 543 204 608 240 l 608 718 "},"π":{"ha":1004,"x_min":0,"x_max":0,"o":"m 82 0 b 184 543 135 142 183 432 b 14 536 107 543 53 542 l -11 671 b 278 718 31 700 123 718 l 1010 718 l 1010 543 l 880 543 l 880 199 b 901 0 880 109 890 37 l 675 0 b 646 189 653 25 646 102 l 646 543 l 415 543 b 310 0 407 415 367 115 l 82 0 "},"⁄":{"ha":371,"x_min":0,"x_max":0,"o":"m 440 997 l 597 997 l -69 0 l -227 0 "},".":{"ha":528,"x_min":0,"x_max":0,"o":"m 109 248 l 419 248 l 419 0 l 109 0 "},",":{"ha":485,"x_min":0,"x_max":0,"o":"m 151 248 l 453 248 l 289 -253 l 65 -253 "},":":{"ha":530,"x_min":0,"x_max":0,"o":"m 110 718 l 421 718 l 421 471 l 110 471 m 110 248 l 421 248 l 421 0 l 110 0 "},";":{"ha":505,"x_min":0,"x_max":0,"o":"m 127 718 l 439 718 l 439 471 l 127 471 m 135 248 l 436 248 l 272 -253 l 49 -253 "},"…":{"ha":1507,"x_min":0,"x_max":0,"o":"m 109 248 l 419 248 l 419 0 l 109 0 m 599 248 l 909 248 l 909 0 l 599 0 m 1088 248 l 1398 248 l 1398 0 l 1088 0 "},"!":{"ha":486,"x_min":0,"x_max":0,"o":"m 87 997 l 399 997 l 340 340 l 146 340 m 87 248 l 399 248 l 399 0 l 87 0 "},"¡":{"ha":486,"x_min":0,"x_max":0,"o":"m 399 715 l 399 468 l 87 468 l 87 715 m 340 375 l 399 -281 l 87 -281 l 146 375 "},"?":{"ha":964,"x_min":0,"x_max":0,"o":"m 342 326 b 694 708 342 639 694 541 b 464 822 694 786 611 822 b 269 675 342 822 269 764 b 307 551 269 639 282 597 l 97 458 b 26 697 47 549 26 628 b 463 1025 26 913 236 1025 b 943 707 741 1025 943 913 b 595 326 943 396 595 518 l 342 326 m 311 248 l 623 248 l 623 0 l 311 0 "},"¿":{"ha":964,"x_min":0,"x_max":0,"o":"m 659 471 l 347 471 l 347 718 l 659 718 m 628 392 b 275 10 628 79 275 178 b 506 -104 275 -68 359 -104 b 701 43 628 -104 701 -45 b 663 167 701 79 688 121 l 873 260 b 943 21 922 170 943 90 b 507 -307 943 -195 734 -307 b 26 12 229 -307 26 -195 b 375 392 26 322 375 200 l 628 392 "},"·":{"ha":465,"x_min":0,"x_max":0,"o":"m 109 623 l 357 623 l 357 375 l 109 375 "},"•":{"ha":704,"x_min":0,"x_max":0,"o":"m 109 602 l 596 602 l 596 117 l 109 117 "},"*":{"ha":656,"x_min":0,"x_max":0,"o":"m 127 549 l 241 681 b 215 728 267 710 253 734 l 41 694 l 41 827 l 215 794 b 241 842 253 787 267 812 l 127 974 l 241 1042 l 300 873 b 355 873 313 836 343 836 l 414 1042 l 530 974 l 414 842 b 441 794 389 812 403 787 l 614 827 l 614 694 l 441 728 b 415 681 403 734 389 711 l 530 549 l 414 481 l 355 647 b 300 647 343 685 313 685 l 241 481 "},"#":{"ha":1293,"x_min":0,"x_max":0,"o":"m 250 214 l 24 214 l 47 382 l 275 382 l 321 611 l 89 611 l 119 778 l 343 778 l 382 997 l 554 997 l 518 778 l 868 778 l 905 997 l 1079 997 l 1042 778 l 1271 778 l 1244 611 l 1017 611 l 975 382 l 1202 382 l 1178 214 l 951 214 l 911 0 l 739 0 l 777 214 l 422 214 l 387 0 l 214 0 m 800 382 l 843 611 l 490 611 l 450 382 "},"/":{"ha":835,"x_min":0,"x_max":0,"o":"m 640 1042 l 872 1042 l 195 -292 l -37 -292 "},"\\":{"ha":835,"x_min":0,"x_max":0,"o":"m -37 1042 l 195 1042 l 872 -292 l 640 -292 "},"(":{"ha":507,"x_min":0,"x_max":0,"o":"m 376 -317 b 24 473 157 -172 24 131 b 376 1264 24 817 157 1120 l 519 1095 b 252 473 359 1003 252 757 b 519 -147 252 191 359 -56 l 376 -317 "},")":{"ha":507,"x_min":0,"x_max":0,"o":"m -12 -147 b 256 473 148 -56 256 191 b -12 1095 256 757 148 1003 l 131 1264 b 484 473 351 1120 484 817 b 131 -317 484 131 351 -172 "},"{":{"ha":497,"x_min":0,"x_max":0,"o":"m 379 -328 b 115 -123 212 -328 115 -236 l 115 139 b -9 290 115 275 90 267 l -9 422 b 115 575 90 446 115 437 l 115 838 b 379 1042 115 950 212 1042 l 485 1042 l 485 867 l 428 867 b 349 807 382 867 349 851 l 349 582 b 146 357 349 484 345 390 b 349 132 345 322 349 229 l 349 -96 b 428 -154 349 -138 367 -154 l 485 -154 l 485 -328 l 379 -328 "},"}":{"ha":511,"x_min":0,"x_max":0,"o":"m 26 -328 l 26 -154 l 83 -154 b 163 -96 144 -154 163 -138 l 163 132 b 366 357 163 229 167 322 b 163 582 167 390 163 484 l 163 807 b 83 867 163 851 130 867 l 26 867 l 26 1042 l 132 1042 b 396 838 299 1042 396 950 l 396 575 b 521 422 396 437 421 446 l 521 290 b 396 139 421 267 396 275 l 396 -123 b 132 -328 396 -236 299 -328 "},"[":{"ha":521,"x_min":0,"x_max":0,"o":"m 78 1042 l 511 1042 l 511 869 l 297 869 l 297 -175 l 511 -175 l 511 -347 l 78 -347 "},"]":{"ha":521,"x_min":0,"x_max":0,"o":"m 9 -347 l 9 -175 l 224 -175 l 224 869 l 9 869 l 9 1042 l 443 1042 l 443 -347 "},"-":{"ha":639,"x_min":0,"x_max":0,"o":"m 77 465 l 562 465 l 562 257 l 77 257 "},"­":{"ha":628,"x_min":0,"x_max":0,"o":"m 66 465 l 551 465 l 551 257 l 66 257 "},"–":{"ha":694,"x_min":0,"x_max":0,"o":"m 0 465 l 694 465 l 694 257 l 0 257 "},"—":{"ha":1389,"x_min":0,"x_max":0,"o":"m 0 465 l 1389 465 l 1389 257 l 0 257 "},"_":{"ha":694,"x_min":0,"x_max":0,"o":"m 0 0 l 694 0 l 694 -208 l 0 -208 "},"‚":{"ha":485,"x_min":0,"x_max":0,"o":"m 151 248 l 453 248 l 289 -253 l 65 -253 "},"„":{"ha":869,"x_min":0,"x_max":0,"o":"m 151 248 l 453 248 l 289 -253 l 65 -253 m 536 248 l 838 248 l 673 -253 l 450 -253 "},"“":{"ha":854,"x_min":0,"x_max":0,"o":"m 334 497 l 32 497 l 196 998 l 420 998 m 718 497 l 416 497 l 581 998 l 804 998 "},"”":{"ha":823,"x_min":0,"x_max":0,"o":"m 121 998 l 422 998 l 258 497 l 35 497 m 505 998 l 807 998 l 643 497 l 419 497 "},"‘":{"ha":469,"x_min":0,"x_max":0,"o":"m 334 497 l 32 497 l 196 998 l 420 998 "},"’":{"ha":439,"x_min":0,"x_max":0,"o":"m 121 998 l 422 998 l 258 497 l 35 497 "},"«":{"ha":833,"x_min":0,"x_max":0,"o":"m 0 359 l 231 636 l 440 636 l 212 359 l 440 82 l 231 82 m 383 359 l 614 636 l 827 636 l 596 359 l 827 82 l 614 82 "},"»":{"ha":833,"x_min":0,"x_max":0,"o":"m 237 359 l 7 636 l 220 636 l 450 359 l 220 82 l 7 82 m 621 359 l 393 636 l 603 636 l 833 359 l 603 82 l 393 82 "},"‹":{"ha":447,"x_min":0,"x_max":0,"o":"m 0 359 l 231 636 l 440 636 l 212 359 l 440 82 l 231 82 "},"›":{"ha":447,"x_min":0,"x_max":0,"o":"m 235 359 l 7 636 l 216 636 l 447 359 l 216 82 l 7 82 "},"\"":{"ha":704,"x_min":0,"x_max":0,"o":"m 75 997 l 310 997 l 282 551 l 111 551 m 395 997 l 628 997 l 593 551 l 422 551 "},"'":{"ha":389,"x_min":0,"x_max":0,"o":"m 79 997 l 313 997 l 278 551 l 107 551 "},"¢":{"ha":1013,"x_min":0,"x_max":0,"o":"m 575 168 b 734 289 663 178 714 213 l 965 268 b 575 -26 930 87 784 -12 l 575 -114 l 482 -114 l 482 -27 b 49 359 221 -14 49 134 b 482 745 49 585 221 732 l 482 832 l 575 832 l 575 744 b 965 452 788 730 929 632 l 734 431 b 575 551 714 507 663 542 l 575 168 m 298 359 b 482 168 298 262 367 181 l 482 553 b 298 359 367 541 298 470 "},"¤":{"ha":909,"x_min":0,"x_max":0,"o":"m 72 256 l 147 330 b 102 503 117 383 102 443 b 147 677 102 564 117 624 l 74 751 l 203 888 l 281 810 b 456 856 335 840 395 856 b 628 810 515 856 575 840 l 704 886 l 836 754 l 761 679 b 806 504 791 625 806 566 b 761 329 806 444 791 383 l 835 256 l 705 119 l 628 197 b 454 153 575 168 514 153 b 279 197 393 153 334 168 l 201 119 m 454 336 b 621 505 551 336 621 418 b 454 671 621 597 546 671 b 288 501 361 671 288 593 b 454 336 288 404 367 336 "},"$":{"ha":1147,"x_min":0,"x_max":0,"o":"m 1104 317 b 629 -28 1104 98 943 -22 l 629 -114 l 536 -114 l 536 -28 b 37 261 249 -16 99 79 l 302 342 b 536 185 328 249 426 200 l 536 401 b 71 693 307 410 71 425 b 536 1025 71 889 248 1021 l 536 1096 l 629 1096 l 629 1022 b 1071 762 867 1007 1010 922 l 812 699 b 629 811 789 762 728 799 l 629 625 b 1104 317 860 613 1104 589 m 322 715 b 536 629 322 648 409 636 l 536 815 b 322 715 393 812 322 776 m 629 180 b 844 292 779 183 844 221 b 629 397 844 372 757 389 l 629 180 "},"€":{"ha":1173,"x_min":0,"x_max":0,"o":"m 675 204 b 918 361 787 204 871 257 l 1140 229 b 676 -28 1046 71 879 -28 b 165 338 428 -28 226 95 l 47 338 l 47 464 l 146 464 b 146 500 146 475 146 488 b 146 536 146 512 146 524 l 47 536 l 47 663 l 165 663 b 676 1025 227 904 429 1025 b 1140 771 879 1025 1046 929 l 918 639 b 675 796 872 745 787 796 b 431 663 567 796 475 764 l 742 663 l 742 536 l 404 536 b 403 500 404 525 403 513 b 404 464 403 488 404 475 l 742 464 l 742 338 l 431 338 b 675 204 475 237 567 204 "},"ƒ":{"ha":760,"x_min":0,"x_max":0,"o":"m 207 532 l 68 532 l 97 718 l 239 718 l 253 787 b 602 1055 286 956 415 1055 b 733 1034 648 1055 697 1047 l 704 868 b 628 880 684 875 656 880 b 472 754 545 880 488 833 l 465 718 l 679 718 l 648 532 l 436 532 l 275 -302 l 49 -302 "},"₨":{"ha":1019,"x_min":0,"x_max":0,"o":"m 769 856 b 834 697 804 811 825 758 l 964 697 l 964 555 l 834 555 b 595 278 813 391 715 313 l 852 0 l 524 0 l 304 254 l 94 254 l 94 468 l 401 468 b 566 555 480 468 541 493 l 94 555 l 94 697 l 566 697 b 395 783 541 758 480 783 l 94 783 l 94 997 l 964 997 l 964 856 "},"£":{"ha":1018,"x_min":0,"x_max":0,"o":"m 58 143 l 106 154 b 180 244 157 167 180 197 l 180 392 l 58 392 l 58 566 l 180 566 l 180 639 b 587 1028 180 871 347 1028 b 970 747 751 1028 928 961 l 747 720 b 582 828 720 802 660 828 b 410 639 473 828 410 772 l 410 566 l 746 566 l 746 392 l 410 392 l 410 208 l 947 208 l 947 0 l 58 0 "},"¥":{"ha":1072,"x_min":0,"x_max":0,"o":"m 700 528 l 936 528 l 936 386 l 668 386 l 668 293 l 936 293 l 936 151 l 668 151 l 668 0 l 408 0 l 408 151 l 136 151 l 136 293 l 408 293 l 408 386 l 136 386 l 136 528 l 374 528 l 12 997 l 300 997 l 536 661 l 775 997 l 1061 997 "},"+":{"ha":869,"x_min":0,"x_max":0,"o":"m 343 392 l 35 392 l 35 575 l 343 575 l 343 884 l 526 884 l 526 575 l 835 575 l 835 392 l 526 392 l 526 83 l 343 83 "},"−":{"ha":884,"x_min":0,"x_max":0,"o":"m 115 575 l 768 575 l 768 392 l 115 392 "},"×":{"ha":766,"x_min":0,"x_max":0,"o":"m 36 265 l 254 484 l 36 701 l 165 831 l 383 612 l 602 831 l 730 701 l 513 484 l 730 265 l 602 136 l 383 354 l 165 136 "},"÷":{"ha":717,"x_min":0,"x_max":0,"o":"m 235 920 l 484 920 l 484 672 l 235 672 m 32 575 l 685 575 l 685 392 l 32 392 m 235 294 l 484 294 l 484 47 l 235 47 "},"=":{"ha":886,"x_min":0,"x_max":0,"o":"m 117 730 l 770 730 l 770 547 l 117 547 m 117 419 l 770 419 l 770 236 l 117 236 "},"≠":{"ha":821,"x_min":0,"x_max":0,"o":"m 184 236 l 92 236 l 92 419 l 278 419 l 343 547 l 92 547 l 92 730 l 436 730 l 532 920 l 714 920 l 618 730 l 745 730 l 745 547 l 525 547 l 460 419 l 745 419 l 745 236 l 367 236 l 248 0 l 65 0 "},">":{"ha":676,"x_min":0,"x_max":0,"o":"m 640 440 l 640 281 l 85 0 l 85 204 l 393 360 l 85 515 l 85 718 "},"<":{"ha":676,"x_min":0,"x_max":0,"o":"m 591 515 l 283 360 l 591 204 l 591 0 l 36 281 l 36 440 l 591 718 "},"≥":{"ha":710,"x_min":0,"x_max":0,"o":"m 650 720 l 650 559 l 94 279 l 94 484 l 402 639 l 94 794 l 94 997 m 94 208 l 650 208 l 650 0 l 94 0 "},"≤":{"ha":710,"x_min":0,"x_max":0,"o":"m 615 794 l 308 639 l 615 484 l 615 279 l 60 559 l 60 720 l 615 997 m 60 208 l 615 208 l 615 0 l 60 0 "},"±":{"ha":821,"x_min":0,"x_max":0,"o":"m 321 561 l 68 561 l 68 745 l 321 745 l 321 997 l 504 997 l 504 745 l 757 745 l 757 561 l 504 561 l 504 309 l 321 309 m 60 207 l 757 207 l 757 -1 l 60 -1 "},"≈":{"ha":879,"x_min":0,"x_max":0,"o":"m 579 473 b 368 582 461 473 396 554 b 321 603 345 606 329 603 b 245 482 271 603 250 553 l 75 482 b 323 775 81 657 164 775 b 510 675 397 775 452 750 b 566 640 519 663 534 640 b 636 758 604 640 631 681 l 804 758 b 579 473 798 597 725 473 m 579 111 b 368 221 461 111 395 193 b 321 240 353 236 343 241 b 245 119 268 236 250 191 l 75 119 b 323 414 81 298 168 414 b 510 314 393 414 446 387 b 566 278 518 304 534 278 b 636 397 604 278 631 317 l 804 397 b 579 111 798 237 725 111 "},"~":{"ha":885,"x_min":0,"x_max":0,"o":"m 579 200 b 368 309 461 200 399 282 b 322 329 346 328 330 329 b 245 208 265 329 248 265 l 75 208 b 328 500 66 380 158 500 b 510 401 414 500 461 469 b 564 366 521 386 536 366 b 636 485 604 366 642 408 l 804 485 b 579 200 822 323 725 200 "},"¬":{"ha":1117,"x_min":0,"x_max":0,"o":"m 803 519 l 49 519 l 49 718 l 1000 718 l 1000 164 l 803 164 "},"^":{"ha":946,"x_min":0,"x_max":0,"o":"m 725 231 l 473 786 l 221 231 l 14 231 l 361 997 l 585 997 l 932 231 "},"∅":{"ha":950,"x_min":0,"x_max":0,"o":"m 475 -11 b 215 81 376 -11 286 24 l 154 20 l 90 83 l 151 144 b 60 404 94 215 60 306 b 475 819 60 633 245 819 b 734 728 574 819 664 785 l 796 789 l 860 725 l 799 664 b 890 404 856 593 890 503 b 475 -11 890 175 704 -11 m 596 589 b 475 624 561 611 519 624 b 256 404 353 624 256 526 b 290 283 256 359 268 318 m 475 184 b 694 404 597 184 694 282 b 660 525 694 449 682 490 l 354 220 b 475 184 389 197 431 184 "},"∞":{"ha":1107,"x_min":0,"x_max":0,"o":"m 298 164 b 68 404 165 164 72 261 b 298 644 72 547 165 644 b 553 518 380 644 469 599 b 807 644 637 600 725 644 b 1036 404 947 644 1032 557 b 807 164 1032 252 947 164 b 553 290 725 164 637 208 b 298 164 469 210 380 164 m 298 319 b 449 404 339 319 393 349 b 298 489 393 460 339 489 b 222 404 257 489 222 456 b 298 319 222 353 257 319 m 807 319 b 882 404 850 319 882 349 b 807 489 882 460 850 489 b 656 404 765 489 713 458 b 807 319 713 350 765 319 "},"∫":{"ha":697,"x_min":0,"x_max":0,"o":"m 18 -79 b 216 50 178 -79 216 -54 l 216 770 b 497 1011 216 911 339 1011 b 692 950 558 1011 640 996 l 603 765 b 524 799 576 787 551 799 b 453 717 476 799 453 777 l 453 25 b 18 -310 453 -183 271 -310 "},"∏":{"ha":1275,"x_min":0,"x_max":0,"o":"m 142 779 l 52 779 l 52 997 l 1223 997 l 1223 779 l 1133 779 l 1133 0 l 914 0 l 914 779 l 364 779 l 364 0 l 142 0 "},"∑":{"ha":1074,"x_min":0,"x_max":0,"o":"m 43 151 l 521 519 l 43 888 l 43 1042 l 1022 1042 l 1022 856 l 374 856 l 804 519 l 374 183 l 1022 183 l 1022 0 l 43 0 "},"√":{"ha":979,"x_min":0,"x_max":0,"o":"m 138 428 l 28 428 l 28 633 l 283 633 l 393 300 l 747 1042 l 972 1042 l 471 0 l 277 0 "},"µ":{"ha":882,"x_min":0,"x_max":0,"o":"m 800 718 l 800 0 l 589 0 l 589 76 b 389 -14 538 20 467 -14 b 313 -3 362 -14 336 -9 l 313 -347 l 117 -347 l 117 718 l 328 718 l 328 294 b 452 171 328 225 382 171 b 589 294 529 171 589 225 l 589 718 "},"∂":{"ha":794,"x_min":0,"x_max":0,"o":"m 196 991 b 742 456 497 1072 753 815 b 339 -3 733 176 572 -3 b 66 432 103 -3 -28 180 b 490 698 144 640 317 737 b 196 821 442 807 346 863 l 196 991 m 524 456 b 524 526 525 480 525 504 b 269 378 415 581 317 525 b 351 153 220 220 292 153 b 524 456 416 153 511 231 "},"%":{"ha":1332,"x_min":0,"x_max":0,"o":"m 309 511 b 25 761 144 511 25 623 b 309 1011 25 900 146 1011 b 586 761 468 1011 586 900 b 309 511 586 624 468 511 m 868 997 l 1076 997 l 460 0 l 253 0 m 309 654 b 424 761 371 654 424 700 b 309 869 424 819 370 869 b 191 761 243 869 191 823 b 309 654 191 700 243 654 m 1029 -11 b 746 239 865 -11 746 100 b 1029 489 746 378 867 489 b 1307 239 1189 489 1307 378 b 1029 -11 1307 102 1189 -11 m 1029 132 b 1145 239 1092 132 1145 178 b 1029 347 1145 297 1090 347 b 911 239 964 347 911 301 b 1029 132 911 178 964 132 "},"‰":{"ha":1946,"x_min":0,"x_max":0,"o":"m 309 511 b 25 761 144 511 25 623 b 309 1011 25 900 146 1011 b 586 761 468 1011 586 900 b 309 511 586 624 468 511 m 868 997 l 1076 997 l 460 0 l 253 0 m 309 654 b 424 761 371 654 424 700 b 309 869 424 819 370 869 b 191 761 243 869 191 823 b 309 654 191 700 243 654 m 1029 -11 b 746 239 865 -11 746 100 b 1029 489 746 378 867 489 b 1307 239 1189 489 1307 378 b 1029 -11 1307 102 1189 -11 m 1643 -11 b 1360 239 1479 -11 1360 100 b 1643 489 1360 378 1480 489 b 1921 239 1803 489 1921 378 b 1643 -11 1921 102 1803 -11 m 1029 132 b 1145 239 1092 132 1145 178 b 1029 347 1145 297 1090 347 b 911 239 964 347 911 301 b 1029 132 911 178 964 132 m 1643 132 b 1758 239 1706 132 1758 178 b 1643 347 1758 297 1704 347 b 1525 239 1578 347 1525 301 b 1643 132 1525 178 1578 132 "},"◊":{"ha":854,"x_min":0,"x_max":0,"o":"m 8 490 l 428 909 l 846 492 l 428 72 m 575 492 l 428 639 l 279 490 l 428 343 "},"":{"ha":1145,"x_min":0,"x_max":0,"o":"m 572 0 b 45 528 282 0 45 237 b 572 1055 45 819 282 1055 b 1100 528 864 1055 1100 819 b 572 0 1100 237 864 0 m 572 50 b 1050 528 836 50 1050 265 b 572 1006 1050 791 836 1006 b 94 528 310 1006 94 791 b 572 50 94 265 310 50 m 848 301 b 832 310 843 301 836 304 l 631 510 b 631 546 621 521 621 536 l 832 747 b 867 747 842 757 857 757 b 867 711 876 737 876 721 l 684 528 l 867 345 b 867 310 876 335 875 321 b 848 301 863 304 856 301 m 296 301 b 271 326 282 301 271 313 l 271 729 b 296 754 271 743 282 754 b 321 729 310 754 321 743 l 321 326 b 296 301 321 313 310 301 m 572 301 b 547 326 558 301 547 313 l 547 729 b 572 754 547 743 558 754 b 597 729 586 754 597 743 l 597 326 b 572 301 597 313 586 301 m 371 503 b 346 528 357 503 346 514 b 371 553 346 542 357 553 l 497 553 b 522 528 511 553 522 542 b 497 503 522 514 511 503 l 371 503 "},"@":{"ha":1326,"x_min":0,"x_max":0,"o":"m 660 -157 b 45 390 317 -157 45 53 b 667 940 45 714 294 940 b 1291 436 1032 940 1291 721 b 1004 111 1291 232 1158 111 b 846 248 935 111 846 136 l 811 248 b 591 100 777 139 677 100 b 387 264 489 100 387 155 b 603 432 387 382 507 411 l 766 467 l 766 478 b 669 557 766 504 766 557 b 549 458 612 557 574 541 l 386 494 b 685 668 422 623 545 668 b 940 443 827 668 940 633 l 940 325 b 1026 237 940 258 983 237 b 1149 424 1097 237 1149 292 b 669 818 1149 684 950 818 b 187 395 371 818 187 665 b 647 -36 187 102 403 -36 b 937 46 771 -36 856 1 l 1004 -72 b 660 -157 907 -126 790 -157 m 633 215 b 766 354 690 215 766 258 l 766 375 l 659 346 b 558 271 616 335 558 317 b 633 215 558 240 583 215 "},"&":{"ha":1154,"x_min":0,"x_max":0,"o":"m 1125 533 b 964 184 1099 397 1045 277 l 1112 54 l 974 -90 b 810 60 916 -37 861 13 b 453 -28 711 3 592 -28 b 25 275 207 -28 25 71 b 288 583 25 417 115 493 b 211 787 236 656 211 722 b 541 1025 211 947 351 1025 b 864 806 751 1025 864 928 b 592 532 864 711 796 633 b 800 331 645 475 713 410 b 892 570 849 399 878 484 l 1125 533 m 547 867 b 446 775 485 867 446 832 b 480 671 446 745 456 711 b 643 804 587 720 643 760 b 547 867 643 846 596 867 m 453 172 b 648 209 530 172 594 186 b 409 439 552 296 473 372 b 256 283 317 397 256 355 b 453 172 256 200 342 172 "},"¶":{"ha":777,"x_min":0,"x_max":0,"o":"m 285 532 l 269 532 b 22 765 117 532 22 614 b 269 997 22 917 117 997 l 407 997 l 407 -208 l 285 -208 m 536 997 l 660 997 l 660 -208 l 536 -208 "},"§":{"ha":951,"x_min":0,"x_max":0,"o":"m 806 207 b 890 40 857 167 890 113 b 484 -233 890 -153 697 -233 b 43 33 257 -233 75 -140 l 260 82 b 492 -66 278 -18 374 -66 b 672 31 591 -66 672 -35 b 411 168 672 107 547 134 b 79 425 248 208 79 260 b 168 614 79 505 112 569 b 79 778 115 651 79 703 b 460 1043 79 946 244 1043 b 882 803 660 1043 843 974 l 677 753 b 472 876 657 840 578 876 b 293 783 378 876 293 848 b 529 669 293 722 403 701 b 890 395 696 627 890 575 b 806 207 890 313 858 250 m 293 431 b 530 317 293 367 416 344 b 600 299 553 311 576 305 b 672 383 645 311 672 340 b 410 521 672 460 547 486 l 409 521 l 411 517 b 293 431 342 513 293 485 "},"©":{"ha":1114,"x_min":0,"x_max":0,"o":"m 557 -14 b 45 498 275 -14 45 216 b 557 1011 45 781 275 1011 b 1069 498 839 1011 1069 781 b 557 -14 1069 216 839 -14 m 557 110 b 946 498 775 110 946 281 b 557 888 946 717 775 888 b 168 498 339 888 168 717 b 557 110 168 281 339 110 m 561 214 b 277 498 404 214 277 342 b 561 783 277 657 404 783 b 789 671 654 783 737 739 l 682 590 b 561 653 656 631 612 653 b 412 498 476 653 412 589 b 561 346 412 410 476 346 b 682 408 612 346 656 368 l 789 328 b 561 214 737 258 654 214 "},"®":{"ha":669,"x_min":0,"x_max":0,"o":"m 334 1025 b 608 751 485 1025 608 901 b 334 476 608 600 485 476 b 60 751 183 476 60 600 b 334 1025 60 901 183 1025 m 334 543 b 542 751 452 543 542 633 b 334 958 542 868 452 958 b 126 751 216 958 126 868 b 334 543 126 633 216 543 m 454 808 b 409 731 454 773 436 745 l 463 606 l 383 606 l 340 721 l 309 721 l 309 606 l 236 606 l 236 896 l 366 896 b 454 808 415 896 454 857 m 309 779 l 353 779 b 385 807 371 779 385 790 b 353 833 385 822 371 833 l 309 833 "},"™":{"ha":1178,"x_min":0,"x_max":0,"o":"m 32 997 l 411 997 l 411 897 l 281 897 l 281 513 l 164 513 l 164 897 l 32 897 m 1061 997 l 1061 513 l 945 513 l 945 888 l 937 888 l 810 513 l 730 513 l 603 889 l 596 889 l 596 513 l 478 513 l 478 997 l 675 997 l 770 715 l 868 997 "},"°":{"ha":571,"x_min":0,"x_max":0,"o":"m 285 578 b 68 794 164 578 68 672 b 285 1011 68 916 164 1011 b 501 794 406 1011 501 916 b 285 578 501 672 406 578 m 285 711 b 367 794 332 711 367 747 b 285 876 367 842 332 876 b 203 794 237 876 203 842 b 285 711 203 747 237 711 "},"|":{"ha":385,"x_min":0,"x_max":0,"o":"m 117 1042 l 268 1042 l 268 -347 l 117 -347 "},"¦":{"ha":385,"x_min":0,"x_max":0,"o":"m 117 1042 l 268 1042 l 268 486 l 117 486 m 117 208 l 268 208 l 268 -347 l 117 -347 "},"†":{"ha":633,"x_min":0,"x_max":0,"o":"m 615 616 l 392 616 l 392 -170 l 236 -170 l 236 616 l 18 616 l 18 771 l 236 771 l 236 997 l 392 997 l 392 771 l 615 771 "},"‡":{"ha":692,"x_min":0,"x_max":0,"o":"m 421 616 l 421 225 l 644 225 l 644 71 l 421 71 l 421 -170 l 265 -170 l 265 71 l 47 71 l 47 225 l 265 225 l 265 616 l 47 616 l 47 771 l 265 771 l 265 997 l 421 997 l 421 771 l 644 771 l 644 616 "},"̈":{"ha":0,"x_min":0,"x_max":0,"o":"m -659 1042 l -411 1042 l -411 836 l -659 836 m -325 1042 l -76 1042 l -76 836 l -325 836 "},"̇":{"ha":0,"x_min":0,"x_max":0,"o":"m -334 1042 l -76 1042 l -76 836 l -334 836 "},"̀":{"ha":0,"x_min":0,"x_max":0,"o":"m -433 1042 l -167 1042 l -3 802 l -233 802 "},"́":{"ha":0,"x_min":0,"x_max":0,"o":"m -262 1042 l 4 1042 l -196 802 l -427 802 "},"̋":{"ha":0,"x_min":0,"x_max":0,"o":"m -595 1042 l -329 1042 l -529 802 l -760 802 m -262 1042 l 4 1042 l -195 802 l -426 802 "},"̂":{"ha":0,"x_min":0,"x_max":0,"o":"m -386 1042 l -164 1042 l -3 838 l -192 838 l -275 929 l -358 838 l -547 838 "},"̌":{"ha":0,"x_min":0,"x_max":0,"o":"m -549 1042 l -359 1042 l -276 950 l -193 1042 l -4 1042 l -165 838 l -387 838 "},"̆":{"ha":0,"x_min":0,"x_max":0,"o":"m -311 817 b -583 1042 -479 817 -583 868 l -402 1042 b -311 942 -402 972 -372 942 b -218 1042 -248 942 -218 972 l -37 1042 b -311 817 -37 868 -141 817 "},"̊":{"ha":0,"x_min":0,"x_max":0,"o":"m -237 761 b -444 937 -351 761 -444 840 b -237 1111 -444 1039 -351 1111 b -33 937 -125 1111 -33 1039 b -237 761 -33 840 -125 761 m -237 860 b -147 937 -186 860 -147 890 b -237 1015 -147 985 -186 1015 b -325 937 -287 1015 -325 985 b -237 860 -325 890 -287 860 "},"̃":{"ha":0,"x_min":0,"x_max":0,"o":"m -245 778 b -429 871 -389 778 -374 871 b -474 786 -461 871 -474 846 l -644 786 b -444 1006 -644 911 -582 1006 b -249 913 -304 1006 -300 913 b -212 997 -221 913 -212 935 l -41 997 b -245 778 -41 876 -95 778 "},"̄":{"ha":0,"x_min":0,"x_max":0,"o":"m -534 962 l -77 962 l -77 821 l -534 821 "},"̉":{"ha":0,"x_min":0,"x_max":0,"o":"m -302 865 b -166 925 -212 873 -166 895 b -248 964 -166 947 -197 964 b -341 935 -284 964 -313 956 l -407 1013 b -233 1055 -365 1038 -307 1055 b -33 925 -115 1055 -33 1010 b -158 812 -33 860 -81 827 l -158 766 l -302 766 "},"̒":{"ha":0,"x_min":0,"x_max":0,"o":"m -121 789 l -422 789 l -258 1042 l -35 1042 "},"̛":{"ha":0,"x_min":0,"x_max":0,"o":"m -196 496 b -340 542 -236 496 -292 511 l -304 623 b -239 603 -277 607 -254 603 b -172 693 -187 603 -172 618 l -172 790 l -62 790 l -62 652 b -196 496 -62 526 -129 496 "},"̣":{"ha":0,"x_min":0,"x_max":0,"o":"m -178 -347 b -313 -212 -252 -347 -313 -288 b -178 -79 -313 -139 -252 -79 b -44 -212 -105 -79 -44 -139 b -178 -347 -44 -288 -105 -347 "},"̦":{"ha":0,"x_min":0,"x_max":0,"o":"m -218 -83 l -5 -83 l -164 -318 l -325 -318 "},"̧":{"ha":0,"x_min":0,"x_max":0,"o":"m -184 -361 b -347 -249 -271 -361 -330 -311 l -242 -215 b -189 -254 -233 -241 -212 -254 b -136 -204 -163 -254 -136 -236 b -189 -153 -136 -170 -163 -153 b -236 -178 -208 -153 -227 -161 l -321 -131 l -233 22 l -121 22 l -184 -77 b -157 -74 -175 -75 -165 -74 b -26 -204 -82 -74 -26 -127 b -184 -361 -26 -292 -96 -361 "},"̨":{"ha":0,"x_min":0,"x_max":0,"o":"m -172 -306 b -311 -225 -244 -306 -311 -281 b -125 25 -311 -157 -222 -57 l -58 0 b -176 -165 -115 -69 -176 -132 b -151 -183 -176 -179 -166 -183 b -58 -154 -126 -183 -87 -170 l -58 -283 b -172 -306 -90 -297 -132 -306 "},"̵":{"ha":0,"x_min":0,"x_max":0,"o":"m -582 416 l -77 416 l -77 269 l -582 269 "},"̶":{"ha":0,"x_min":0,"x_max":0,"o":"m -1215 407 l -75 407 l -75 315 l -1215 315 "},"̷":{"ha":0,"x_min":0,"x_max":0,"o":"m -479 302 l -5 653 l -5 504 l -479 155 "},"̸":{"ha":0,"x_min":0,"x_max":0,"o":"m -608 139 l -64 921 l 28 867 l -517 85 "},"¨":{"ha":725,"x_min":0,"x_max":0,"o":"m 66 1042 l 314 1042 l 314 836 l 66 836 m 400 1042 l 649 1042 l 649 836 l 400 836 "},"˙":{"ha":390,"x_min":0,"x_max":0,"o":"m 66 1042 l 324 1042 l 324 836 l 66 836 "},"`":{"ha":429,"x_min":0,"x_max":0,"o":"m -4 1042 l 262 1042 l 427 802 l 196 802 "},"´":{"ha":418,"x_min":0,"x_max":0,"o":"m 156 1042 l 422 1042 l 222 802 l -8 802 "},"˝":{"ha":762,"x_min":0,"x_max":0,"o":"m 167 1042 l 433 1042 l 233 802 l 3 802 m 500 1042 l 766 1042 l 567 802 l 336 802 "},"ˆ":{"ha":539,"x_min":0,"x_max":0,"o":"m 153 1042 l 375 1042 l 536 838 l 347 838 l 264 929 l 181 838 l -8 838 "},"ˇ":{"ha":542,"x_min":0,"x_max":0,"o":"m -7 1042 l 182 1042 l 266 950 l 349 1042 l 538 1042 l 376 838 l 155 838 "},"˘":{"ha":621,"x_min":0,"x_max":0,"o":"m 310 817 b 37 1042 142 817 37 868 l 218 1042 b 310 942 218 972 249 942 b 403 1042 372 942 403 972 l 583 1042 b 310 817 583 868 479 817 "},"˚":{"ha":467,"x_min":0,"x_max":0,"o":"m 229 761 b 22 937 115 761 22 840 b 229 1111 22 1039 115 1111 b 433 937 342 1111 433 1039 b 229 761 433 840 342 761 m 229 860 b 319 937 281 860 319 890 b 229 1015 319 985 281 1015 b 142 937 180 1015 142 985 b 229 860 142 890 180 860 "},"˜":{"ha":685,"x_min":0,"x_max":0,"o":"m 440 778 b 256 871 296 778 311 871 b 211 786 224 871 211 846 l 41 786 b 241 1006 41 911 103 1006 b 436 913 380 1006 385 913 b 473 997 464 913 473 935 l 644 997 b 440 778 644 876 590 778 "},"¯":{"ha":602,"x_min":0,"x_max":0,"o":"m 67 962 l 525 962 l 525 821 l 67 821 "},"¸":{"ha":357,"x_min":0,"x_max":0,"o":"m 174 -361 b 10 -249 86 -361 28 -311 l 115 -215 b 168 -254 124 -241 146 -254 b 221 -204 195 -254 221 -236 b 168 -153 221 -170 195 -153 b 121 -178 149 -153 131 -161 l 37 -131 l 124 22 l 237 22 l 174 -77 b 200 -74 182 -75 192 -74 b 331 -204 275 -74 331 -127 b 174 -361 331 -292 261 -361 "},"˛":{"ha":332,"x_min":0,"x_max":0,"o":"m 160 -306 b 21 -225 87 -306 21 -281 b 207 25 21 -157 110 -57 l 273 0 b 155 -165 216 -69 155 -132 b 180 -183 155 -179 165 -183 b 273 -154 205 -183 244 -170 l 273 -283 b 160 -306 241 -297 200 -306 "}}}
